<?xml version="1.0" encoding="UTF-8" standalone="no"?>
<!-- Generator: Adobe Illustrator 15.1.0, SVG Export Plug-In . SVG Version: 6.00 Build 0)  -->

<svg
   xmlns:dc="http://purl.org/dc/elements/1.1/"
   xmlns:cc="http://creativecommons.org/ns#"
   xmlns:rdf="http://www.w3.org/1999/02/22-rdf-syntax-ns#"
   xmlns:svg="http://www.w3.org/2000/svg"
   xmlns="http://www.w3.org/2000/svg"
   xmlns:sodipodi="http://sodipodi.sourceforge.net/DTD/sodipodi-0.dtd"
   xmlns:inkscape="http://www.inkscape.org/namespaces/inkscape"
   sodipodi:docname="joynr-logo2.svg"
   inkscape:version="0.48.4 r9939"
   xml:space="preserve"
   enable-background="new 0 0 1000 800"
   viewBox="0 0 1000 800"
   height="800px"
   width="1000px"
   y="0px"
   x="0px"
   id="Layer_1"
   version="1.1"><sodipodi:namedview
   pagecolor="#ffffff"
   bordercolor="#666666"
   borderopacity="1"
   objecttolerance="10"
   gridtolerance="10"
   guidetolerance="10"
   inkscape:pageopacity="0"
   inkscape:pageshadow="2"
   inkscape:window-width="1920"
   inkscape:window-height="1138"
   id="namedview3127"
   showgrid="false"
   inkscape:zoom="0.40446508"
   inkscape:cx="729.70056"
   inkscape:cy="370.86853"
   inkscape:window-x="-8"
   inkscape:window-y="-8"
   inkscape:window-maximized="1"
   inkscape:current-layer="Layer_1"><inkscape:grid
     id="grid3133"
     type="xygrid" /></sodipodi:namedview><metadata
   id="metadata3131"><rdf:RDF><cc:Work
       rdf:about=""><dc:format>image/svg+xml</dc:format><dc:type
         rdf:resource="http://purl.org/dc/dcmitype/StillImage" /><dc:title></dc:title></cc:Work></rdf:RDF></metadata><defs
   id="defs3129"><inkscape:path-effect
     effect="spiro"
     id="path-effect5692"
     is_visible="true" /><inkscape:path-effect
     is_visible="true"
     id="path-effect3271"
     effect="spiro" /><inkscape:path-effect
     is_visible="true"
     id="path-effect3271-7"
     effect="spiro" /><inkscape:path-effect
     is_visible="true"
     id="path-effect3271-7-1"
     effect="spiro" /><inkscape:path-effect
     is_visible="true"
     id="path-effect3271-5"
     effect="spiro" /><inkscape:path-effect
     is_visible="true"
     id="path-effect3271-7-6"
     effect="spiro" /><inkscape:path-effect
     is_visible="true"
     id="path-effect3271-1"
     effect="spiro" /><inkscape:path-effect
     is_visible="true"
     id="path-effect3271-7-6-3"
     effect="spiro" /><inkscape:path-effect
     is_visible="true"
     id="path-effect3271-1-2"
     effect="spiro" /><inkscape:path-effect
     is_visible="true"
     id="path-effect3271-7-1-2"
     effect="spiro" /><inkscape:path-effect
     is_visible="true"
     id="path-effect3271-5-1"
     effect="spiro" /><inkscape:path-effect
     is_visible="true"
     id="path-effect3271-7-68"
     effect="spiro" /><inkscape:path-effect
     is_visible="true"
     id="path-effect3271-57"
     effect="spiro" /><inkscape:path-effect
     is_visible="true"
     id="path-effect3271-9"
     effect="spiro" /><inkscape:path-effect
     is_visible="true"
     id="path-effect3271-4"
     effect="spiro" /><inkscape:path-effect
     is_visible="true"
     id="path-effect3271-7-6-1"
     effect="spiro" /><inkscape:path-effect
     is_visible="true"
     id="path-effect3271-7-6-33"
     effect="spiro" /><filter
     id="filter7692"><feGaussianBlur
       stdDeviation="6.932732"
       id="feGaussianBlur7694" /></filter><filter
     x="-0.10463167"
     width="1.2092633"
     y="-0.1065773"
     height="1.2131546"
     id="filter7698"><feGaussianBlur
       stdDeviation="13.865464"
       id="feGaussianBlur7700" /></filter><filter
     x="-0.15620046"
     width="1.3124009"
     y="-0.16063051"
     height="1.321261"
     id="filter7704"><feGaussianBlur
       stdDeviation="20.798196"
       id="feGaussianBlur7706" /></filter><filter
     x="-0.20725199"
     width="1.414504"
     y="-0.21522322"
     height="1.4304464"
     id="filter7710"><feGaussianBlur
       stdDeviation="27.730928"
       id="feGaussianBlur7712" /></filter><filter
     x="-0.25777108"
     width="1.5155422"
     y="-0.27037944"
     height="1.5407589"
     id="filter7716"><feGaussianBlur
       stdDeviation="34.66366"
       id="feGaussianBlur7718" /></filter><filter
     x="-0.3077419"
     width="1.6154838"
     y="-0.32612471"
     height="1.6522494"
     id="filter7722"><feGaussianBlur
       stdDeviation="41.596392"
       id="feGaussianBlur7724" /></filter><filter
     x="-0.35714797"
     width="1.7142959"
     y="-0.38248617"
     height="1.7649723"
     id="filter7728"><feGaussianBlur
       stdDeviation="48.529124"
       id="feGaussianBlur7730" /></filter><filter
     id="filter7736"><feGaussianBlur
       stdDeviation="6.932732"
       id="feGaussianBlur7738" /></filter><filter
     x="-0.10463167"
     width="1.2092633"
     y="-0.1065773"
     height="1.2131546"
     id="filter7742"><feGaussianBlur
       stdDeviation="13.865464"
       id="feGaussianBlur7744" /></filter><filter
     x="-0.15620046"
     width="1.3124009"
     y="-0.16063051"
     height="1.321261"
     id="filter7748"><feGaussianBlur
       stdDeviation="20.798196"
       id="feGaussianBlur7750" /></filter><filter
     x="-0.20725199"
     width="1.414504"
     y="-0.21522322"
     height="1.4304464"
     id="filter7754"><feGaussianBlur
       stdDeviation="27.730928"
       id="feGaussianBlur7756" /></filter><filter
     x="-0.25777108"
     width="1.5155422"
     y="-0.27037944"
     height="1.5407589"
     id="filter7760"><feGaussianBlur
       stdDeviation="34.66366"
       id="feGaussianBlur7762" /></filter><filter
     x="-0.3077419"
     width="1.6154838"
     y="-0.32612471"
     height="1.6522494"
     id="filter7766"><feGaussianBlur
       stdDeviation="41.596392"
       id="feGaussianBlur7768" /></filter><filter
     x="-0.35714797"
     width="1.7142959"
     y="-0.38248617"
     height="1.7649723"
     id="filter7772"><feGaussianBlur
       stdDeviation="48.529124"
       id="feGaussianBlur7774" /></filter><filter
     id="filter7780"><feGaussianBlur
       stdDeviation="6.932732"
       id="feGaussianBlur7782" /></filter><filter
     x="-0.10463167"
     width="1.2092633"
     y="-0.1065773"
     height="1.2131546"
     id="filter7786"><feGaussianBlur
       stdDeviation="13.865464"
       id="feGaussianBlur7788" /></filter><filter
     x="-0.15620046"
     width="1.3124009"
     y="-0.16063051"
     height="1.321261"
     id="filter7792"><feGaussianBlur
       stdDeviation="20.798196"
       id="feGaussianBlur7794" /></filter><filter
     x="-0.20725199"
     width="1.414504"
     y="-0.21522322"
     height="1.4304464"
     id="filter7798"><feGaussianBlur
       stdDeviation="27.730928"
       id="feGaussianBlur7800" /></filter><filter
     x="-0.25777108"
     width="1.5155422"
     y="-0.27037944"
     height="1.5407589"
     id="filter7804"><feGaussianBlur
       stdDeviation="34.66366"
       id="feGaussianBlur7806" /></filter><filter
     x="-0.3077419"
     width="1.6154838"
     y="-0.32612471"
     height="1.6522494"
     id="filter7810"><feGaussianBlur
       stdDeviation="41.596392"
       id="feGaussianBlur7812" /></filter><filter
     x="-0.35714797"
     width="1.7142959"
     y="-0.38248617"
     height="1.7649723"
     id="filter7816"><feGaussianBlur
       stdDeviation="48.529124"
       id="feGaussianBlur7818" /></filter><clipPath
     clipPathUnits="userSpaceOnUse"
     id="clipPath7866"><rect
       style="color:#000000;fill:#e40000;fill-opacity:1;fill-rule:nonzero;stroke:#bf62a6;stroke-width:10;stroke-miterlimit:4;stroke-opacity:1;stroke-dasharray:none;marker:none;visibility:visible;display:inline;overflow:visible;enable-background:accumulate"
       id="rect7868"
       width="942.30768"
       height="435.3147"
       x="1533.2168"
       y="1008.9161" /></clipPath><clipPath
     clipPathUnits="userSpaceOnUse"
     id="clipPath7950"><rect
       style="color:#000000;fill:#ffffff;fill-opacity:0;fill-rule:nonzero;stroke:#459ba8;stroke-width:5.17663145;stroke-miterlimit:4;stroke-opacity:1;stroke-dasharray:none;marker:none;visibility:visible;display:inline;overflow:visible;enable-background:accumulate"
       id="rect7952"
       width="394.92825"
       height="152.79539"
       x="-99.999092"
       y="467.04636" /></clipPath></defs>
<g
   enable-background="new    "
   id="svg_26">
	<title
   id="title3042">Layer 1</title>
	<linearGradient
   y2="146.0401"
   x2="659.3929"
   y1="538.2617"
   x1="318.4399"
   gradientUnits="userSpaceOnUse"
   id="SVGID_1_">
		<stop
   id="stop3045"
   style="stop-color:#007FFF"
   offset="0" />
		<stop
   id="stop3047"
   style="stop-color:#B8DFFF"
   offset="1" />
	</linearGradient>
	<path
   id="path3049"
   d="M831.889,351.878c0-56.686-45.952-102.638-102.637-102.638c-13.647,0-26.667,2.67-38.577,7.504   c3.351-10.139,5.171-20.976,5.171-32.239c0-56.685-45.952-102.638-102.638-102.638c-29.638,0-56.337,12.567-75.072,32.657   C494.909,111.632,449.511,82.5,397.306,82.5c-75.117,0-136.135,60.316-137.292,135.157   c-62.446,3.392-112.038,55.098-112.038,118.391c0,63.757,50.324,115.754,113.417,118.454v0.118h474.29v-0.311   C789.371,450.988,831.889,406.402,831.889,351.878z"
   fill="url(#SVGID_1_)" />
</g>
<g
   enable-background="new    "
   id="svg_26_1_">
	<title
   id="title3052">Layer 1</title>
	<linearGradient
   y2="193.4643"
   x2="635.2556"
   y1="525.4795"
   x1="346.6392"
   gradientUnits="userSpaceOnUse"
   id="SVGID_2_">
		<stop
   id="stop3055"
   style="stop-color:#007FFF"
   offset="0" />
		<stop
   id="stop3057"
   style="stop-color:#2C96FF"
   offset="0.0798" />
		<stop
   id="stop3059"
   style="stop-color:#56ACFF"
   offset="0.1704" />
		<stop
   id="stop3061"
   style="stop-color:#7ABEFF"
   offset="0.2627" />
		<stop
   id="stop3063"
   style="stop-color:#95CDFF"
   offset="0.3556" />
		<stop
   id="stop3065"
   style="stop-color:#A9D7FF"
   offset="0.4492" />
		<stop
   id="stop3067"
   style="stop-color:#B4DDFF"
   offset="0.5442" />
		<stop
   id="stop3069"
   style="stop-color:#B8DFFF"
   offset="0.6424" />
	</linearGradient>
	<path
   id="path3071"
   d="M781.273,367.706c0-47.984-38.898-86.883-86.884-86.883c-11.552,0-22.572,2.26-32.655,6.353   c2.838-8.583,4.379-17.757,4.379-27.291c0-47.984-38.899-86.883-86.884-86.883c-25.088,0-47.688,10.638-63.549,27.645   c-19.661-36.31-58.09-60.969-102.281-60.969c-63.586,0-115.239,51.058-116.217,114.41c-52.861,2.872-94.841,46.64-94.841,100.218   c0,53.97,42.6,97.985,96.007,100.271v0.101h401.485v-0.263C745.281,451.603,781.273,413.859,781.273,367.706z"
   fill="url(#SVGID_2_)" />
</g>
<path
   style="fill:#ffffff"
   inkscape:connector-curvature="0"
   id="path3073"
   d="m 287.907,313.47 v 88.189 c 0,20.791 -4.332,36.558 -28.068,36.558 -3.812,0 -7.624,-0.347 -11.262,-1.56 l 1.56,-18.02 c 2.252,0.521 4.332,0.866 6.583,0.866 10.396,0 10.396,-10.048 10.396,-17.672 V 313.47 h 20.791 z m -10.569,-40.716 c 7.624,0 13.514,5.371 13.514,12.475 0,7.104 -5.891,12.475 -13.514,12.475 -7.623,0 -13.168,-5.892 -13.168,-12.475 0,-6.584 5.545,-12.475 13.168,-12.475 z" />
<path
   style="fill:#ffffff"
   inkscape:connector-curvature="0"
   id="path3075"
   d="m 340.878,311.39 c 25.123,0 45.221,17.5 45.221,43.662 0,26.162 -20.099,43.662 -45.221,43.662 -25.122,0 -45.221,-17.5 -45.221,-43.662 0,-26.162 20.098,-43.662 45.221,-43.662 z m 0,68.612 c 15.247,0 24.43,-11.956 24.43,-24.95 0,-12.994 -9.183,-24.949 -24.43,-24.949 -15.247,0 -24.429,11.955 -24.429,24.949 0,12.994 9.182,24.95 24.429,24.95 z" />
<path
   style="fill:#ffffff"
   inkscape:connector-curvature="0"
   id="path3077"
   d="m 386.239,313.47 h 22.871 l 23.217,57.696 h 0.346 l 20.791,-57.696 h 21.657 l -39.329,101.01 c -6.064,15.594 -13.341,23.736 -31.707,23.736 -5.371,0 -10.742,-0.692 -15.939,-2.079 l 2.599,-18.713 c 3.292,1.213 6.931,2.079 10.568,2.079 10.223,0 12.995,-3.638 16.46,-12.301 l 3.985,-9.876 -35.519,-83.856 z" />
<path
   style="fill:#ffffff"
   inkscape:connector-curvature="0"
   id="path3079"
   d="m 485.421,313.47 h 19.752 v 13.341 h 0.347 c 3.812,-8.316 11.609,-15.421 25.468,-15.421 22.352,0 30.322,15.768 30.322,32.747 v 52.498 h -20.793 v -42.102 c 0,-9.183 -0.691,-24.43 -15.246,-24.43 -13.688,0 -19.058,10.049 -19.058,21.137 v 45.394 H 485.421 V 313.47 z" />
<path
   style="fill:#ffffff"
   inkscape:connector-curvature="0"
   id="path3081"
   d="m 570.871,313.47 h 20.791 v 13.168 h 0.346 c 4.506,-9.53 13.688,-15.248 24.604,-15.248 2.6,0 5.023,0.521 7.449,1.213 v 20.098 c -3.465,-0.866 -6.756,-1.559 -10.049,-1.559 -19.578,0 -22.35,16.459 -22.35,20.964 v 44.527 H 570.871 V 313.47 z" />
<path
   style="fill:#ffffff"
   inkscape:connector-curvature="0"
   id="path3083"
   d="m 624.189,370.992 c 7.447,0 13.859,5.718 13.859,13.168 0,7.45 -6.236,13.514 -13.859,13.514 -7.277,0 -13.861,-5.717 -13.861,-13.167 0,-7.45 6.238,-13.515 13.861,-13.515 z" />
<path
   style="fill:#ffffff"
   inkscape:connector-curvature="0"
   id="path3085"
   d="m 658.18,272.754 c 7.623,0 13.514,5.371 13.514,12.475 0,7.104 -5.891,12.475 -13.514,12.475 -7.623,0 -13.168,-5.892 -13.168,-12.475 0,-6.584 5.545,-12.475 13.168,-12.475 z m -10.223,40.716 h 20.791 v 83.165 H 647.957 V 313.47 z" />
<path
   style="fill:#ffffff"
   inkscape:connector-curvature="0"
   id="path3087"
   d="m 719.721,311.39 c 25.121,0 45.219,17.5 45.219,43.662 0,26.162 -20.098,43.662 -45.219,43.662 -25.123,0 -45.223,-17.5 -45.223,-43.662 0,-26.162 20.1,-43.662 45.223,-43.662 z m 0,68.612 c 15.246,0 24.428,-11.956 24.428,-24.95 0,-12.994 -9.182,-24.949 -24.428,-24.949 -15.248,0 -24.432,11.955 -24.432,24.949 0,12.994 9.184,24.95 24.432,24.95 z" />
<g
   id="g3089">
	<path
   id="path3091"
   d="M386.248,500.005c-2.713,2.88-5.759,4.431-9.469,4.431c-7.143,0-10.798-5.76-10.798-11.519   c0-8.583,5.26-13.511,12.016-13.511c2.547,0,6.091,0.996,7.143,2.325c0.499,0.609,1.107,2.603,1.107,4.209   c0,1.107-0.332,2.159-1.771,2.159c-3.046,0-4.43-1.605-4.873-3.986c-0.333-1.772-1.218-2.382-2.326-2.382   c-3.046,0-4.651,4.153-4.651,8.195c0,5.482,2.215,9.636,7.42,9.636c2.16,0,3.544-0.609,5.205-1.329L386.248,500.005z"
   fill="#8C8C8C" />
	<path
   id="path3093"
   d="M402.971,479.406c8.029,0,12.57,5.759,12.57,12.293c0,8.583-6.977,12.736-13.29,12.736   c-8.029,0-12.681-5.814-12.681-12.294C389.571,483.559,396.659,479.406,402.971,479.406z M402.916,501.445   c3.544,0,5.094-2.824,5.094-7.975c0-6.922-2.049-11.739-5.814-11.739c-3.544,0-5.094,3.046-5.094,8.195   C397.102,496.849,399.15,501.445,402.916,501.445z"
   fill="#8C8C8C" />
	<path
   id="path3095"
   d="M419.029,481.787c2.381-0.166,5.537-1.163,6.313-3.71h1.606c-0.166,1.883-0.166,3.766-0.166,5.537   l3.654-3.322c1.108-0.443,2.935-0.886,4.984-0.886c5.427,0,8.084,2.159,8.084,7.364c0,4.485-0.166,8.971-0.166,13.456   c0,1.439,0.166,1.605,2.215,1.827v1.772c-1.827-0.111-3.876-0.222-5.759-0.222c-1.606,0-3.655,0.11-5.427,0.222v-1.772   c1.938-0.11,2.492-0.276,2.492-2.049v-11.352c0-2.879-0.499-5.593-3.987-5.593c-1.495,0-3.488,0.72-5.149,2.104v7.254   c0,8.029,0.166,8.583,0.554,8.971c0.277,0.276,0.775,0.498,2.27,0.664v1.772c-2.049-0.111-4.153-0.222-6.368-0.222   c-2.215,0-4.319,0.11-6.147,0.222v-1.772c1.828-0.222,2.437-0.442,2.603-0.996c0.277-0.941,0.443-2.769,0.443-8.639   c0-7.31-0.056-7.863-0.388-8.306c-0.332-0.443-0.831-0.555-1.661-0.555V481.787z"
   fill="#8C8C8C" />
	<path
   id="path3097"
   d="M448.765,481.787c2.381-0.166,5.537-1.163,6.313-3.71h1.606c-0.166,1.883-0.166,3.766-0.166,5.537   l3.654-3.322c1.108-0.443,2.935-0.886,4.984-0.886c5.427,0,8.084,2.159,8.084,7.364c0,4.485-0.166,8.971-0.166,13.456   c0,1.439,0.166,1.605,2.215,1.827v1.772c-1.827-0.111-3.876-0.222-5.759-0.222c-1.606,0-3.655,0.11-5.427,0.222v-1.772   c1.938-0.11,2.492-0.276,2.492-2.049v-11.352c0-2.879-0.499-5.593-3.987-5.593c-1.495,0-3.488,0.72-5.149,2.104v7.254   c0,8.029,0.166,8.583,0.554,8.971c0.277,0.276,0.775,0.498,2.27,0.664v1.772c-2.049-0.111-4.153-0.222-6.368-0.222   c-2.215,0-4.319,0.11-6.147,0.222v-1.772c1.828-0.222,2.437-0.442,2.603-0.996c0.277-0.941,0.443-2.769,0.443-8.639   c0-7.31-0.056-7.863-0.388-8.306c-0.332-0.443-0.831-0.555-1.661-0.555V481.787z"
   fill="#8C8C8C" />
	<path
   id="path3099"
   d="M501.203,500.061c-3.6,3.378-7.088,4.375-10.465,4.375c-7.033,0-11.961-4.541-11.961-11.519   c0-7.53,4.707-13.511,12.515-13.511c4.042,0,10.189,1.661,10.189,10.41v1.052c-2.936-0.11-6.091-0.166-7.808-0.166h-7.697v0.997   c0,4.762,3.488,7.863,8.306,7.863c1.495,0,3.489-0.499,5.648-1.385L501.203,500.061z M486.086,487.158   c0,0.886,0.167,1.219,1.052,1.219c2.658,0,4.707-0.056,5.704-0.166c1.107-0.111,1.44-0.277,1.44-1.108   c0-2.436-0.886-5.371-3.71-5.371C487.637,481.731,486.086,484.224,486.086,487.158z"
   fill="#8C8C8C" />
	<path
   id="path3101"
   d="M524.682,500.005c-2.713,2.88-5.759,4.431-9.469,4.431c-7.144,0-10.798-5.76-10.798-11.519   c0-8.583,5.261-13.511,12.016-13.511c2.548,0,6.092,0.996,7.144,2.325c0.499,0.609,1.107,2.603,1.107,4.209   c0,1.107-0.332,2.159-1.771,2.159c-3.046,0-4.43-1.605-4.873-3.986c-0.332-1.772-1.219-2.382-2.326-2.382   c-3.045,0-4.651,4.153-4.651,8.195c0,5.482,2.215,9.636,7.421,9.636c2.159,0,3.543-0.609,5.205-1.329L524.682,500.005z"
   fill="#8C8C8C" />
	<path
   id="path3103"
   d="M527.173,481.677c4.485-1.772,6.812-4.597,7.808-8.085h2.326c-0.276,1.771-0.388,4.208-0.388,6.645h6.036   v3.268c-3.489-0.332-1.661-0.277-5.371-0.277c-0.111,3.821-0.443,8.195-0.443,13.844c0,2.271,0.056,3.268,1.605,3.268   c1.273,0,2.714-0.499,4.098-0.941l0.831,1.661c-2.547,1.55-5.98,3.378-8.86,3.378c-2.381,0-4.318-1.495-4.318-5.206   c0-3.599,0.332-10.908,0.332-16.279l-3.655,0.222V481.677z"
   fill="#8C8C8C" />
	<path
   id="path3105"
   d="M545.391,481.787c3.766-0.11,6.7-1.107,7.863-3.71h1.938c-0.388,4.762-0.609,9.635-0.609,14.342   c0,8.029,0.166,8.583,0.554,8.971c0.276,0.276,0.775,0.498,1.938,0.664v1.772c-1.717-0.111-3.821-0.222-6.036-0.222   s-4.319,0.11-6.146,0.222v-1.772c1.827-0.222,2.437-0.442,2.603-0.996c0.276-0.941,0.443-2.769,0.443-8.639   c0-7.31-0.056-7.863-0.388-8.306c-0.333-0.443-0.831-0.555-2.16-0.555V481.787z M551.482,464.289c2.935,0,3.876,2.271,3.876,3.654   c0,2.492-2.271,4.541-4.319,4.541c-2.935,0-3.876-2.271-3.876-3.6C547.163,466.338,549.434,464.289,551.482,464.289z"
   fill="#8C8C8C" />
	<path
   id="path3107"
   d="M560.563,481.787c2.382-0.166,5.538-1.163,6.313-3.71h1.605c-0.166,1.883-0.166,3.766-0.166,5.537   l3.654-3.322c1.107-0.443,2.936-0.886,4.984-0.886c5.426,0,8.084,2.159,8.084,7.364c0,4.485-0.166,8.971-0.166,13.456   c0,1.439,0.166,1.605,2.215,1.827v1.772c-1.827-0.111-3.876-0.222-5.759-0.222c-1.605,0-3.654,0.11-5.427,0.222v-1.772   c1.938-0.11,2.492-0.276,2.492-2.049v-11.352c0-2.879-0.499-5.593-3.987-5.593c-1.495,0-3.488,0.72-5.149,2.104v7.254   c0,8.029,0.166,8.583,0.554,8.971c0.276,0.276,0.775,0.498,2.271,0.664v1.772c-2.049-0.111-4.153-0.222-6.368-0.222   s-4.319,0.11-6.146,0.222v-1.772c1.827-0.222,2.437-0.442,2.603-0.996c0.276-0.941,0.442-2.769,0.442-8.639   c0-7.31-0.055-7.863-0.388-8.306c-0.332-0.443-0.83-0.555-1.661-0.555V481.787z"
   fill="#8C8C8C" />
	<path
   id="path3109"
   d="M611.175,485.054c0.499,0.499,0.887,1.163,0.887,3.268c0,5.205-4.541,8.749-10.134,8.749   c-0.997,0-1.938-0.11-2.658-0.332c-1.771,0.996-2.381,1.883-2.381,2.603c0,0.609,0.609,1.052,2.104,1.052   c1.273,0,4.596-0.222,7.974-0.222c5.98,0,7.144,3.323,7.144,6.202c0,6.368-5.593,9.524-14.121,9.524   c-6.035,0-9.635-1.993-9.635-5.537c0-2.603,3.046-3.876,5.149-4.651v-0.111c-2.935-0.664-4.264-2.657-4.264-4.54   c0-1.219,0.333-1.994,1.994-2.88l3.986-2.104c-2.603-1.107-5.593-3.378-5.593-7.696c0-6.646,6.479-8.971,10.41-8.971   c3.157,0,5.095,1.107,6.59,2.381c1.772-0.332,4.929-0.941,5.371-0.941c0.333,0,0.665,0.166,0.665,1.495   c0,1.052-0.166,2.159-0.886,2.159c-0.941,0-2.104-1.052-4.873-1.716l-0.111,0.11L611.175,485.054z M603.921,505.709   c-1.771,0-3.322,0.222-6.423,0.222c-0.499,0.608-0.831,1.495-0.831,2.491c0,2.437,1.772,5.15,6.313,5.15   c3.987,0,6.812-1.938,6.812-4.541C609.791,505.709,606.357,505.709,603.921,505.709z M602.592,495.299   c1.938,0,2.824-1.828,2.824-5.538c0-0.609,0-8.583-3.82-8.583c-2.326,0-2.769,2.049-2.769,5.261   C598.827,488.543,598.827,495.299,602.592,495.299z"
   fill="#8C8C8C" />
	<path
   id="path3111"
   d="M630.223,481.677c4.485-1.772,6.812-4.597,7.809-8.085h2.325c-0.276,1.771-0.388,4.208-0.388,6.645h6.036   v3.268c-3.489-0.332-1.661-0.277-5.371-0.277c-0.111,3.821-0.443,8.195-0.443,13.844c0,2.271,0.056,3.268,1.605,3.268   c1.273,0,2.714-0.499,4.098-0.941l0.831,1.661c-2.547,1.55-5.98,3.378-8.86,3.378c-2.381,0-4.318-1.495-4.318-5.206   c0-3.599,0.332-10.908,0.332-16.279l-3.655,0.222V481.677z"
   fill="#8C8C8C" />
	<path
   id="path3113"
   d="M663.558,502.054c1.938-0.11,2.492-0.276,2.492-2.049v-11.352c0-2.879-0.499-5.593-3.987-5.593   c-1.495,0-3.488,0.72-5.149,2.104v7.254c0,8.029,0.166,8.583,0.554,8.971c0.276,0.276,0.775,0.498,2.271,0.664v1.772   c-2.049-0.111-4.153-0.222-6.368-0.222s-4.319,0.11-6.146,0.222v-1.772c1.827-0.222,2.437-0.442,2.603-0.996   c0.276-0.941,0.442-2.769,0.442-8.639v-15.394c0-4.763-0.221-7.531-0.388-9.524c-0.11-1.219-0.442-1.329-2.657-1.44v-1.771   c3.267-0.443,6.534-1.495,8.583-3.212h1.605c-0.276,3.378-0.498,6.922-0.498,21.651l2.713-2.437   c1.107-0.443,2.935-0.886,4.984-0.886c5.426,0,8.084,2.159,8.084,7.364c0,4.485-0.166,8.971-0.166,13.456   c0,1.439,0.166,1.605,2.215,1.827v1.772c-1.827-0.111-3.876-0.222-5.759-0.222c-1.605,0-3.654,0.11-5.427,0.222V502.054z"
   fill="#8C8C8C" />
	<path
   id="path3115"
   d="M700.658,500.061c-3.6,3.378-7.088,4.375-10.466,4.375c-7.033,0-11.961-4.541-11.961-11.519   c0-7.53,4.707-13.511,12.515-13.511c4.042,0,10.188,1.661,10.188,10.41v1.052c-2.935-0.11-6.091-0.166-7.808-0.166h-7.697v0.997   c0,4.762,3.489,7.863,8.307,7.863c1.495,0,3.488-0.499,5.648-1.385L700.658,500.061z M685.541,487.158   c0,0.886,0.166,1.219,1.052,1.219c2.658,0,4.707-0.056,5.704-0.166c1.107-0.111,1.439-0.277,1.439-1.108   c0-2.436-0.886-5.371-3.71-5.371C687.091,481.731,685.541,484.224,685.541,487.158z"
   fill="#8C8C8C" />
	<path
   id="path3117"
   d="M732.553,464.289c3.212-0.443,6.479-1.495,8.528-3.212h1.605c-0.276,3.378-0.498,6.922-0.498,19.381   c0,18.717,0.055,19.271,0.276,19.824c0.222,0.498,0.886,0.72,2.16,0.83v1.661c-2.658,0.222-4.984,0.388-6.258,1.662h-1.439   c-0.111-1.274-0.443-2.326-0.886-3.323c-2.16,1.883-4.873,3.323-8.251,3.323c-5.593,0-10.078-3.6-10.078-10.799   c0-8.14,6.146-13.4,12.515-13.4c2.325,0,3.986,0.499,5.315,1.551v-5.316c0-3.377-0.166-6.313-0.388-8.97   c-0.11-1.219-0.442-1.329-2.603-1.44V464.289z M731.335,500.338c1.661,0,2.99-0.277,4.208-0.775   c0.277-2.769,0.388-5.427,0.388-7.642c0-7.808-1.771-9.358-5.261-9.358c-3.433,0-5.759,3.322-5.759,8.472   C724.911,496.073,726.905,500.338,731.335,500.338z"
   fill="#8C8C8C" />
	<path
   id="path3119"
   d="M760.849,479.406c8.029,0,12.57,5.759,12.57,12.293c0,8.583-6.978,12.736-13.29,12.736   c-8.029,0-12.681-5.814-12.681-12.294C747.448,483.559,754.536,479.406,760.849,479.406z M760.793,501.445   c3.544,0,5.095-2.824,5.095-7.975c0-6.922-2.049-11.739-5.814-11.739c-3.544,0-5.094,3.046-5.094,8.195   C754.979,496.849,757.028,501.445,760.793,501.445z"
   fill="#8C8C8C" />
	<path
   id="path3121"
   d="M776.353,481.677c4.485-1.772,6.812-4.597,7.808-8.085h2.326c-0.276,1.771-0.388,4.208-0.388,6.645h6.036   v3.268c-3.489-0.332-1.661-0.277-5.371-0.277c-0.111,3.821-0.443,8.195-0.443,13.844c0,2.271,0.056,3.268,1.605,3.268   c1.273,0,2.714-0.499,4.098-0.941l0.831,1.661c-2.547,1.55-5.98,3.378-8.86,3.378c-2.381,0-4.318-1.495-4.318-5.206   c0-3.599,0.332-10.908,0.332-16.279l-3.655,0.222V481.677z"
   fill="#8C8C8C" />
	<path
   id="path3123"
   d="M795.623,495.907h2.325c0.886,2.16,2.714,6.202,6.812,6.202c2.713,0,3.322-1.938,3.322-3.267   c0-4.265-13.124-4.541-13.124-11.961c0-4.929,4.43-7.476,9.303-7.476c3.434,0,5.98,0.775,7.753,1.439v5.925h-2.326   c-0.83-3.488-3.156-5.039-6.091-5.039c-2.104,0-2.99,1.329-2.99,2.382c0,1.328,0.498,2.27,7.31,5.481   c4.596,2.16,5.481,3.544,5.481,6.812c0,3.765-2.657,8.029-9.856,8.029c-3.6,0-5.427-0.775-7.918-1.883V495.907z"
   fill="#8C8C8C" />
	<path
   id="path3125"
   d="M822.646,495.741c2.381,0,3.654,1.772,3.654,3.876c0,2.714-1.495,4.984-4.541,4.984   c-2.381,0-3.654-1.772-3.654-3.877C818.104,498.012,819.6,495.741,822.646,495.741z"
   fill="#8C8C8C" />
</g>
</svg>