<?xml version="1.0" encoding="UTF-8" standalone="no"?>
<!-- Generator: Adobe Illustrator 15.1.0, SVG Export Plug-In . SVG Version: 6.00 Build 0)  -->

<svg
   xmlns:dc="http://purl.org/dc/elements/1.1/"
   xmlns:cc="http://creativecommons.org/ns#"
   xmlns:rdf="http://www.w3.org/1999/02/22-rdf-syntax-ns#"
   xmlns:svg="http://www.w3.org/2000/svg"
   xmlns="http://www.w3.org/2000/svg"
   xmlns:sodipodi="http://sodipodi.sourceforge.net/DTD/sodipodi-0.dtd"
   xmlns:inkscape="http://www.inkscape.org/namespaces/inkscape"
   sodipodi:docname="joynr-logo.svg"
   inkscape:version="0.48.4 r9939"
   xml:space="preserve"
   enable-background="new 0 0 1000 800"
   viewBox="0 0 700 440"
   height="440"
   width="700"
   y="0px"
   x="0px"
   id="Layer_1"
   version="1.1"><sodipodi:namedview
   pagecolor="#ffffff"
   bordercolor="#666666"
   borderopacity="1"
   objecttolerance="10"
   gridtolerance="10"
   guidetolerance="10"
   inkscape:pageopacity="0"
   inkscape:pageshadow="2"
   inkscape:window-width="1920"
   inkscape:window-height="1138"
   id="namedview3127"
   showgrid="false"
   inkscape:zoom="0.80893016"
   inkscape:cx="486.20714"
   inkscape:cy="53.780501"
   inkscape:window-x="-8"
   inkscape:window-y="-8"
   inkscape:window-maximized="1"
   inkscape:current-layer="Layer_1"><inkscape:grid
     id="grid3133"
     type="xygrid"
     empspacing="5"
     visible="true"
     enabled="true"
     snapvisiblegridlinesonly="true" /></sodipodi:namedview><metadata
   id="metadata3131"><rdf:RDF><cc:Work
       rdf:about=""><dc:format>image/svg+xml</dc:format><dc:type
         rdf:resource="http://purl.org/dc/dcmitype/StillImage" /><dc:title /></cc:Work></rdf:RDF></metadata><defs
   id="defs3129"><inkscape:path-effect
     effect="spiro"
     id="path-effect5692"
     is_visible="true" /><inkscape:path-effect
     is_visible="true"
     id="path-effect3271"
     effect="spiro" /><inkscape:path-effect
     is_visible="true"
     id="path-effect3271-7"
     effect="spiro" /><inkscape:path-effect
     is_visible="true"
     id="path-effect3271-7-1"
     effect="spiro" /><inkscape:path-effect
     is_visible="true"
     id="path-effect3271-5"
     effect="spiro" /><inkscape:path-effect
     is_visible="true"
     id="path-effect3271-7-6"
     effect="spiro" /><inkscape:path-effect
     is_visible="true"
     id="path-effect3271-1"
     effect="spiro" /><inkscape:path-effect
     is_visible="true"
     id="path-effect3271-7-6-3"
     effect="spiro" /><inkscape:path-effect
     is_visible="true"
     id="path-effect3271-1-2"
     effect="spiro" /><inkscape:path-effect
     is_visible="true"
     id="path-effect3271-7-1-2"
     effect="spiro" /><inkscape:path-effect
     is_visible="true"
     id="path-effect3271-5-1"
     effect="spiro" /><inkscape:path-effect
     is_visible="true"
     id="path-effect3271-7-68"
     effect="spiro" /><inkscape:path-effect
     is_visible="true"
     id="path-effect3271-57"
     effect="spiro" /><inkscape:path-effect
     is_visible="true"
     id="path-effect3271-9"
     effect="spiro" /><inkscape:path-effect
     is_visible="true"
     id="path-effect3271-4"
     effect="spiro" /><inkscape:path-effect
     is_visible="true"
     id="path-effect3271-7-6-1"
     effect="spiro" /><inkscape:path-effect
     is_visible="true"
     id="path-effect3271-7-6-33"
     effect="spiro" /><filter
     id="filter7692"
     color-interpolation-filters="sRGB"><feGaussianBlur
       stdDeviation="6.932732"
       id="feGaussianBlur7694" /></filter><filter
     x="-0.10463167"
     width="1.2092633"
     y="-0.1065773"
     height="1.2131546"
     id="filter7698"
     color-interpolation-filters="sRGB"><feGaussianBlur
       stdDeviation="13.865464"
       id="feGaussianBlur7700" /></filter><filter
     x="-0.15620045"
     width="1.3124009"
     y="-0.16063051"
     height="1.321261"
     id="filter7704"
     color-interpolation-filters="sRGB"><feGaussianBlur
       stdDeviation="20.798196"
       id="feGaussianBlur7706" /></filter><filter
     x="-0.207252"
     width="1.4145041"
     y="-0.21522322"
     height="1.4304464"
     id="filter7710"
     color-interpolation-filters="sRGB"><feGaussianBlur
       stdDeviation="27.730928"
       id="feGaussianBlur7712" /></filter><filter
     x="-0.25777107"
     width="1.5155421"
     y="-0.27037945"
     height="1.5407588"
     id="filter7716"
     color-interpolation-filters="sRGB"><feGaussianBlur
       stdDeviation="34.66366"
       id="feGaussianBlur7718" /></filter><filter
     x="-0.30774191"
     width="1.6154838"
     y="-0.3261247"
     height="1.6522495"
     id="filter7722"
     color-interpolation-filters="sRGB"><feGaussianBlur
       stdDeviation="41.596392"
       id="feGaussianBlur7724" /></filter><filter
     x="-0.35714796"
     width="1.7142959"
     y="-0.38248616"
     height="1.7649723"
     id="filter7728"
     color-interpolation-filters="sRGB"><feGaussianBlur
       stdDeviation="48.529124"
       id="feGaussianBlur7730" /></filter><filter
     id="filter7736"
     color-interpolation-filters="sRGB"><feGaussianBlur
       stdDeviation="6.932732"
       id="feGaussianBlur7738" /></filter><filter
     x="-0.10463167"
     width="1.2092633"
     y="-0.1065773"
     height="1.2131546"
     id="filter7742"
     color-interpolation-filters="sRGB"><feGaussianBlur
       stdDeviation="13.865464"
       id="feGaussianBlur7744" /></filter><filter
     x="-0.15620045"
     width="1.3124009"
     y="-0.16063051"
     height="1.321261"
     id="filter7748"
     color-interpolation-filters="sRGB"><feGaussianBlur
       stdDeviation="20.798196"
       id="feGaussianBlur7750" /></filter><filter
     x="-0.207252"
     width="1.4145041"
     y="-0.21522322"
     height="1.4304464"
     id="filter7754"
     color-interpolation-filters="sRGB"><feGaussianBlur
       stdDeviation="27.730928"
       id="feGaussianBlur7756" /></filter><filter
     x="-0.25777107"
     width="1.5155421"
     y="-0.27037945"
     height="1.5407588"
     id="filter7760"
     color-interpolation-filters="sRGB"><feGaussianBlur
       stdDeviation="34.66366"
       id="feGaussianBlur7762" /></filter><filter
     x="-0.30774191"
     width="1.6154838"
     y="-0.3261247"
     height="1.6522495"
     id="filter7766"
     color-interpolation-filters="sRGB"><feGaussianBlur
       stdDeviation="41.596392"
       id="feGaussianBlur7768" /></filter><filter
     x="-0.35714796"
     width="1.7142959"
     y="-0.38248616"
     height="1.7649723"
     id="filter7772"
     color-interpolation-filters="sRGB"><feGaussianBlur
       stdDeviation="48.529124"
       id="feGaussianBlur7774" /></filter><filter
     id="filter7780"
     color-interpolation-filters="sRGB"><feGaussianBlur
       stdDeviation="6.932732"
       id="feGaussianBlur7782" /></filter><filter
     x="-0.10463167"
     width="1.2092633"
     y="-0.1065773"
     height="1.2131546"
     id="filter7786"
     color-interpolation-filters="sRGB"><feGaussianBlur
       stdDeviation="13.865464"
       id="feGaussianBlur7788" /></filter><filter
     x="-0.15620045"
     width="1.3124009"
     y="-0.16063051"
     height="1.321261"
     id="filter7792"
     color-interpolation-filters="sRGB"><feGaussianBlur
       stdDeviation="20.798196"
       id="feGaussianBlur7794" /></filter><filter
     x="-0.207252"
     width="1.4145041"
     y="-0.21522322"
     height="1.4304464"
     id="filter7798"
     color-interpolation-filters="sRGB"><feGaussianBlur
       stdDeviation="27.730928"
       id="feGaussianBlur7800" /></filter><filter
     x="-0.25777107"
     width="1.5155421"
     y="-0.27037945"
     height="1.5407588"
     id="filter7804"
     color-interpolation-filters="sRGB"><feGaussianBlur
       stdDeviation="34.66366"
       id="feGaussianBlur7806" /></filter><filter
     x="-0.30774191"
     width="1.6154838"
     y="-0.3261247"
     height="1.6522495"
     id="filter7810"
     color-interpolation-filters="sRGB"><feGaussianBlur
       stdDeviation="41.596392"
       id="feGaussianBlur7812" /></filter><filter
     x="-0.35714796"
     width="1.7142959"
     y="-0.38248616"
     height="1.7649723"
     id="filter7816"
     color-interpolation-filters="sRGB"><feGaussianBlur
       stdDeviation="48.529124"
       id="feGaussianBlur7818" /></filter><clipPath
     clipPathUnits="userSpaceOnUse"
     id="clipPath7866"><rect
       style="color:#000000;fill:#e40000;fill-opacity:1;fill-rule:nonzero;stroke:#bf62a6;stroke-width:10;stroke-miterlimit:4;stroke-opacity:1;stroke-dasharray:none;marker:none;visibility:visible;display:inline;overflow:visible;enable-background:accumulate"
       id="rect7868"
       width="942.30768"
       height="435.3147"
       x="1533.2168"
       y="1008.9161" /></clipPath><clipPath
     clipPathUnits="userSpaceOnUse"
     id="clipPath7950"><rect
       style="color:#000000;fill:#ffffff;fill-opacity:0;fill-rule:nonzero;stroke:#459ba8;stroke-width:5.17663145;stroke-miterlimit:4;stroke-opacity:1;stroke-dasharray:none;marker:none;visibility:visible;display:inline;overflow:visible;enable-background:accumulate"
       id="rect7952"
       width="394.92825"
       height="152.79539"
       x="-99.999092"
       y="467.04636" /></clipPath></defs>
<g
   enable-background="new    "
   id="svg_26"
   transform="translate(-140.92688,-78.72904)">
	<title
   id="title3042">Layer 1</title>
	<linearGradient
   y2="146.0401"
   x2="659.39288"
   y1="538.26172"
   x1="318.43991"
   gradientUnits="userSpaceOnUse"
   id="SVGID_1_">
		<stop
   id="stop3045"
   style="stop-color:#007FFF"
   offset="0" />
		<stop
   id="stop3047"
   style="stop-color:#B8DFFF"
   offset="1" />
	</linearGradient>
	<path
   id="path3049"
   d="m 831.889,351.878 c 0,-56.686 -45.952,-102.638 -102.637,-102.638 -13.647,0 -26.667,2.67 -38.577,7.504 3.351,-10.139 5.171,-20.976 5.171,-32.239 0,-56.685 -45.952,-102.638 -102.638,-102.638 -29.638,0 -56.337,12.567 -75.072,32.657 C 494.909,111.632 449.511,82.5 397.306,82.5 c -75.117,0 -136.135,60.316 -137.292,135.157 -62.446,3.392 -112.038,55.098 -112.038,118.391 0,63.757 50.324,115.754 113.417,118.454 v 0.118 h 474.29 v -0.311 c 53.688,-3.321 96.206,-47.907 96.206,-102.431 z"
   inkscape:connector-curvature="0"
   style="fill:url(#SVGID_1_)" />
</g>
<g
   enable-background="new    "
   id="svg_26_1_"
   transform="translate(-140.92688,-78.72904)">
	<title
   id="title3052">Layer 1</title>
	<linearGradient
   y2="193.46429"
   x2="635.25562"
   y1="525.47949"
   x1="346.63919"
   gradientUnits="userSpaceOnUse"
   id="SVGID_2_">
		<stop
   id="stop3055"
   style="stop-color:#007FFF"
   offset="0" />
		<stop
   id="stop3057"
   style="stop-color:#2C96FF"
   offset="0.0798" />
		<stop
   id="stop3059"
   style="stop-color:#56ACFF"
   offset="0.1704" />
		<stop
   id="stop3061"
   style="stop-color:#7ABEFF"
   offset="0.2627" />
		<stop
   id="stop3063"
   style="stop-color:#95CDFF"
   offset="0.3556" />
		<stop
   id="stop3065"
   style="stop-color:#A9D7FF"
   offset="0.4492" />
		<stop
   id="stop3067"
   style="stop-color:#B4DDFF"
   offset="0.5442" />
		<stop
   id="stop3069"
   style="stop-color:#B8DFFF"
   offset="0.6424" />
	</linearGradient>
	<path
   id="path3071"
   d="m 781.273,367.706 c 0,-47.984 -38.898,-86.883 -86.884,-86.883 -11.552,0 -22.572,2.26 -32.655,6.353 2.838,-8.583 4.379,-17.757 4.379,-27.291 0,-47.984 -38.899,-86.883 -86.884,-86.883 -25.088,0 -47.688,10.638 -63.549,27.645 -19.661,-36.31 -58.09,-60.969 -102.281,-60.969 -63.586,0 -115.239,51.058 -116.217,114.41 -52.861,2.872 -94.841,46.64 -94.841,100.218 0,53.97 42.6,97.985 96.007,100.271 v 0.101 h 401.485 v -0.263 c 45.448,-2.812 81.44,-40.556 81.44,-86.709 z"
   inkscape:connector-curvature="0"
   style="fill:url(#SVGID_2_)" />
</g>
<path
   style="fill:#ffffff"
   inkscape:connector-curvature="0"
   id="path3073"
   d="m 146.98012,234.74096 v 88.189 c 0,20.791 -4.332,36.558 -28.068,36.558 -3.812,0 -7.624,-0.347 -11.262,-1.56 l 1.56,-18.02 c 2.252,0.521 4.332,0.866 6.583,0.866 10.396,0 10.396,-10.048 10.396,-17.672 v -88.361 h 20.791 z m -10.569,-40.716 c 7.624,0 13.514,5.371 13.514,12.475 0,7.104 -5.891,12.475 -13.514,12.475 -7.623,0 -13.168,-5.892 -13.168,-12.475 0,-6.584 5.545,-12.475 13.168,-12.475 z" />
<path
   style="fill:#ffffff"
   inkscape:connector-curvature="0"
   id="path3075"
   d="m 199.95112,232.66096 c 25.123,0 45.221,17.5 45.221,43.662 0,26.162 -20.099,43.662 -45.221,43.662 -25.122,0 -45.221,-17.5 -45.221,-43.662 0,-26.162 20.098,-43.662 45.221,-43.662 z m 0,68.612 c 15.247,0 24.43,-11.956 24.43,-24.95 0,-12.994 -9.183,-24.949 -24.43,-24.949 -15.247,0 -24.429,11.955 -24.429,24.949 0,12.994 9.182,24.95 24.429,24.95 z" />
<path
   style="fill:#ffffff"
   inkscape:connector-curvature="0"
   id="path3077"
   d="m 245.31212,234.74096 h 22.871 l 23.217,57.696 h 0.346 l 20.791,-57.696 h 21.657 l -39.329,101.01 c -6.064,15.594 -13.341,23.736 -31.707,23.736 -5.371,0 -10.742,-0.692 -15.939,-2.079 l 2.599,-18.713 c 3.292,1.213 6.931,2.079 10.568,2.079 10.223,0 12.995,-3.638 16.46,-12.301 l 3.985,-9.876 -35.519,-83.856 z" />
<path
   style="fill:#ffffff"
   inkscape:connector-curvature="0"
   id="path3079"
   d="m 344.49412,234.74096 h 19.752 v 13.341 h 0.347 c 3.812,-8.316 11.609,-15.421 25.468,-15.421 22.352,0 30.322,15.768 30.322,32.747 v 52.498 h -20.793 v -42.102 c 0,-9.183 -0.691,-24.43 -15.246,-24.43 -13.688,0 -19.058,10.049 -19.058,21.137 v 45.394 h -20.792 v -83.164 z" />
<path
   style="fill:#ffffff"
   inkscape:connector-curvature="0"
   id="path3081"
   d="m 429.94412,234.74096 h 20.791 v 13.168 h 0.346 c 4.506,-9.53 13.688,-15.248 24.604,-15.248 2.6,0 5.023,0.521 7.449,1.213 v 20.098 c -3.465,-0.866 -6.756,-1.559 -10.049,-1.559 -19.578,0 -22.35,16.459 -22.35,20.964 v 44.527 h -20.791 v -83.163 z" />
<path
   style="fill:#ffffff"
   inkscape:connector-curvature="0"
   id="path3083"
   d="m 483.26212,292.26296 c 7.447,0 13.859,5.718 13.859,13.168 0,7.45 -6.236,13.514 -13.859,13.514 -7.277,0 -13.861,-5.717 -13.861,-13.167 0,-7.45 6.238,-13.515 13.861,-13.515 z" />
<path
   style="fill:#ffffff"
   inkscape:connector-curvature="0"
   id="path3085"
   d="m 517.25312,194.02496 c 7.623,0 13.514,5.371 13.514,12.475 0,7.104 -5.891,12.475 -13.514,12.475 -7.623,0 -13.168,-5.892 -13.168,-12.475 0,-6.584 5.545,-12.475 13.168,-12.475 z m -10.223,40.716 h 20.791 v 83.165 h -20.791 v -83.165 z" />
<path
   style="fill:#ffffff"
   inkscape:connector-curvature="0"
   id="path3087"
   d="m 578.79412,232.66096 c 25.121,0 45.219,17.5 45.219,43.662 0,26.162 -20.098,43.662 -45.219,43.662 -25.123,0 -45.223,-17.5 -45.223,-43.662 0,-26.162 20.1,-43.662 45.223,-43.662 z m 0,68.612 c 15.246,0 24.428,-11.956 24.428,-24.95 0,-12.994 -9.182,-24.949 -24.428,-24.949 -15.248,0 -24.432,11.955 -24.432,24.949 0,12.994 9.184,24.95 24.432,24.95 z" />
<g
   id="g3089"
   transform="translate(-140.92688,-78.72904)">
	<path
   id="path3091"
   d="m 386.248,500.005 c -2.713,2.88 -5.759,4.431 -9.469,4.431 -7.143,0 -10.798,-5.76 -10.798,-11.519 0,-8.583 5.26,-13.511 12.016,-13.511 2.547,0 6.091,0.996 7.143,2.325 0.499,0.609 1.107,2.603 1.107,4.209 0,1.107 -0.332,2.159 -1.771,2.159 -3.046,0 -4.43,-1.605 -4.873,-3.986 -0.333,-1.772 -1.218,-2.382 -2.326,-2.382 -3.046,0 -4.651,4.153 -4.651,8.195 0,5.482 2.215,9.636 7.42,9.636 2.16,0 3.544,-0.609 5.205,-1.329 l 0.997,1.772 z"
   inkscape:connector-curvature="0"
   style="fill:#8c8c8c" />
	<path
   id="path3093"
   d="m 402.971,479.406 c 8.029,0 12.57,5.759 12.57,12.293 0,8.583 -6.977,12.736 -13.29,12.736 -8.029,0 -12.681,-5.814 -12.681,-12.294 0.001,-8.582 7.089,-12.735 13.401,-12.735 z m -0.055,22.039 c 3.544,0 5.094,-2.824 5.094,-7.975 0,-6.922 -2.049,-11.739 -5.814,-11.739 -3.544,0 -5.094,3.046 -5.094,8.195 0,6.923 2.048,11.519 5.814,11.519 z"
   inkscape:connector-curvature="0"
   style="fill:#8c8c8c" />
	<path
   id="path3095"
   d="m 419.029,481.787 c 2.381,-0.166 5.537,-1.163 6.313,-3.71 h 1.606 c -0.166,1.883 -0.166,3.766 -0.166,5.537 l 3.654,-3.322 c 1.108,-0.443 2.935,-0.886 4.984,-0.886 5.427,0 8.084,2.159 8.084,7.364 0,4.485 -0.166,8.971 -0.166,13.456 0,1.439 0.166,1.605 2.215,1.827 v 1.772 c -1.827,-0.111 -3.876,-0.222 -5.759,-0.222 -1.606,0 -3.655,0.11 -5.427,0.222 v -1.772 c 1.938,-0.11 2.492,-0.276 2.492,-2.049 v -11.352 c 0,-2.879 -0.499,-5.593 -3.987,-5.593 -1.495,0 -3.488,0.72 -5.149,2.104 v 7.254 c 0,8.029 0.166,8.583 0.554,8.971 0.277,0.276 0.775,0.498 2.27,0.664 v 1.772 c -2.049,-0.111 -4.153,-0.222 -6.368,-0.222 -2.215,0 -4.319,0.11 -6.147,0.222 v -1.772 c 1.828,-0.222 2.437,-0.442 2.603,-0.996 0.277,-0.941 0.443,-2.769 0.443,-8.639 0,-7.31 -0.056,-7.863 -0.388,-8.306 -0.332,-0.443 -0.831,-0.555 -1.661,-0.555 v -1.769 z"
   inkscape:connector-curvature="0"
   style="fill:#8c8c8c" />
	<path
   id="path3097"
   d="m 448.765,481.787 c 2.381,-0.166 5.537,-1.163 6.313,-3.71 h 1.606 c -0.166,1.883 -0.166,3.766 -0.166,5.537 l 3.654,-3.322 c 1.108,-0.443 2.935,-0.886 4.984,-0.886 5.427,0 8.084,2.159 8.084,7.364 0,4.485 -0.166,8.971 -0.166,13.456 0,1.439 0.166,1.605 2.215,1.827 v 1.772 c -1.827,-0.111 -3.876,-0.222 -5.759,-0.222 -1.606,0 -3.655,0.11 -5.427,0.222 v -1.772 c 1.938,-0.11 2.492,-0.276 2.492,-2.049 v -11.352 c 0,-2.879 -0.499,-5.593 -3.987,-5.593 -1.495,0 -3.488,0.72 -5.149,2.104 v 7.254 c 0,8.029 0.166,8.583 0.554,8.971 0.277,0.276 0.775,0.498 2.27,0.664 v 1.772 c -2.049,-0.111 -4.153,-0.222 -6.368,-0.222 -2.215,0 -4.319,0.11 -6.147,0.222 v -1.772 c 1.828,-0.222 2.437,-0.442 2.603,-0.996 0.277,-0.941 0.443,-2.769 0.443,-8.639 0,-7.31 -0.056,-7.863 -0.388,-8.306 -0.332,-0.443 -0.831,-0.555 -1.661,-0.555 v -1.769 z"
   inkscape:connector-curvature="0"
   style="fill:#8c8c8c" />
	<path
   id="path3099"
   d="m 501.203,500.061 c -3.6,3.378 -7.088,4.375 -10.465,4.375 -7.033,0 -11.961,-4.541 -11.961,-11.519 0,-7.53 4.707,-13.511 12.515,-13.511 4.042,0 10.189,1.661 10.189,10.41 v 1.052 c -2.936,-0.11 -6.091,-0.166 -7.808,-0.166 h -7.697 v 0.997 c 0,4.762 3.488,7.863 8.306,7.863 1.495,0 3.489,-0.499 5.648,-1.385 l 1.273,1.884 z m -15.117,-12.903 c 0,0.886 0.167,1.219 1.052,1.219 2.658,0 4.707,-0.056 5.704,-0.166 1.107,-0.111 1.44,-0.277 1.44,-1.108 0,-2.436 -0.886,-5.371 -3.71,-5.371 -2.935,-0.001 -4.486,2.492 -4.486,5.426 z"
   inkscape:connector-curvature="0"
   style="fill:#8c8c8c" />
	<path
   id="path3101"
   d="m 524.682,500.005 c -2.713,2.88 -5.759,4.431 -9.469,4.431 -7.144,0 -10.798,-5.76 -10.798,-11.519 0,-8.583 5.261,-13.511 12.016,-13.511 2.548,0 6.092,0.996 7.144,2.325 0.499,0.609 1.107,2.603 1.107,4.209 0,1.107 -0.332,2.159 -1.771,2.159 -3.046,0 -4.43,-1.605 -4.873,-3.986 -0.332,-1.772 -1.219,-2.382 -2.326,-2.382 -3.045,0 -4.651,4.153 -4.651,8.195 0,5.482 2.215,9.636 7.421,9.636 2.159,0 3.543,-0.609 5.205,-1.329 l 0.995,1.772 z"
   inkscape:connector-curvature="0"
   style="fill:#8c8c8c" />
	<path
   id="path3103"
   d="m 527.173,481.677 c 4.485,-1.772 6.812,-4.597 7.808,-8.085 h 2.326 c -0.276,1.771 -0.388,4.208 -0.388,6.645 h 6.036 v 3.268 c -3.489,-0.332 -1.661,-0.277 -5.371,-0.277 -0.111,3.821 -0.443,8.195 -0.443,13.844 0,2.271 0.056,3.268 1.605,3.268 1.273,0 2.714,-0.499 4.098,-0.941 l 0.831,1.661 c -2.547,1.55 -5.98,3.378 -8.86,3.378 -2.381,0 -4.318,-1.495 -4.318,-5.206 0,-3.599 0.332,-10.908 0.332,-16.279 l -3.655,0.222 v -1.498 z"
   inkscape:connector-curvature="0"
   style="fill:#8c8c8c" />
	<path
   id="path3105"
   d="m 545.391,481.787 c 3.766,-0.11 6.7,-1.107 7.863,-3.71 h 1.938 c -0.388,4.762 -0.609,9.635 -0.609,14.342 0,8.029 0.166,8.583 0.554,8.971 0.276,0.276 0.775,0.498 1.938,0.664 v 1.772 c -1.717,-0.111 -3.821,-0.222 -6.036,-0.222 -2.215,0 -4.319,0.11 -6.146,0.222 v -1.772 c 1.827,-0.222 2.437,-0.442 2.603,-0.996 0.276,-0.941 0.443,-2.769 0.443,-8.639 0,-7.31 -0.056,-7.863 -0.388,-8.306 -0.333,-0.443 -0.831,-0.555 -2.16,-0.555 v -1.771 z m 6.091,-17.498 c 2.935,0 3.876,2.271 3.876,3.654 0,2.492 -2.271,4.541 -4.319,4.541 -2.935,0 -3.876,-2.271 -3.876,-3.6 0,-2.546 2.271,-4.595 4.319,-4.595 z"
   inkscape:connector-curvature="0"
   style="fill:#8c8c8c" />
	<path
   id="path3107"
   d="m 560.563,481.787 c 2.382,-0.166 5.538,-1.163 6.313,-3.71 h 1.605 c -0.166,1.883 -0.166,3.766 -0.166,5.537 l 3.654,-3.322 c 1.107,-0.443 2.936,-0.886 4.984,-0.886 5.426,0 8.084,2.159 8.084,7.364 0,4.485 -0.166,8.971 -0.166,13.456 0,1.439 0.166,1.605 2.215,1.827 v 1.772 c -1.827,-0.111 -3.876,-0.222 -5.759,-0.222 -1.605,0 -3.654,0.11 -5.427,0.222 v -1.772 c 1.938,-0.11 2.492,-0.276 2.492,-2.049 v -11.352 c 0,-2.879 -0.499,-5.593 -3.987,-5.593 -1.495,0 -3.488,0.72 -5.149,2.104 v 7.254 c 0,8.029 0.166,8.583 0.554,8.971 0.276,0.276 0.775,0.498 2.271,0.664 v 1.772 c -2.049,-0.111 -4.153,-0.222 -6.368,-0.222 -2.215,0 -4.319,0.11 -6.146,0.222 v -1.772 c 1.827,-0.222 2.437,-0.442 2.603,-0.996 0.276,-0.941 0.442,-2.769 0.442,-8.639 0,-7.31 -0.055,-7.863 -0.388,-8.306 -0.332,-0.443 -0.83,-0.555 -1.661,-0.555 v -1.769 z"
   inkscape:connector-curvature="0"
   style="fill:#8c8c8c" />
	<path
   id="path3109"
   d="m 611.175,485.054 c 0.499,0.499 0.887,1.163 0.887,3.268 0,5.205 -4.541,8.749 -10.134,8.749 -0.997,0 -1.938,-0.11 -2.658,-0.332 -1.771,0.996 -2.381,1.883 -2.381,2.603 0,0.609 0.609,1.052 2.104,1.052 1.273,0 4.596,-0.222 7.974,-0.222 5.98,0 7.144,3.323 7.144,6.202 0,6.368 -5.593,9.524 -14.121,9.524 -6.035,0 -9.635,-1.993 -9.635,-5.537 0,-2.603 3.046,-3.876 5.149,-4.651 v -0.111 c -2.935,-0.664 -4.264,-2.657 -4.264,-4.54 0,-1.219 0.333,-1.994 1.994,-2.88 l 3.986,-2.104 c -2.603,-1.107 -5.593,-3.378 -5.593,-7.696 0,-6.646 6.479,-8.971 10.41,-8.971 3.157,0 5.095,1.107 6.59,2.381 1.772,-0.332 4.929,-0.941 5.371,-0.941 0.333,0 0.665,0.166 0.665,1.495 0,1.052 -0.166,2.159 -0.886,2.159 -0.941,0 -2.104,-1.052 -4.873,-1.716 l -0.111,0.11 2.382,2.158 z m -7.254,20.655 c -1.771,0 -3.322,0.222 -6.423,0.222 -0.499,0.608 -0.831,1.495 -0.831,2.491 0,2.437 1.772,5.15 6.313,5.15 3.987,0 6.812,-1.938 6.812,-4.541 -10e-4,-3.322 -3.435,-3.322 -5.871,-3.322 z m -1.329,-10.41 c 1.938,0 2.824,-1.828 2.824,-5.538 0,-0.609 0,-8.583 -3.82,-8.583 -2.326,0 -2.769,2.049 -2.769,5.261 0,2.104 0,8.86 3.765,8.86 z"
   inkscape:connector-curvature="0"
   style="fill:#8c8c8c" />
	<path
   id="path3111"
   d="m 630.223,481.677 c 4.485,-1.772 6.812,-4.597 7.809,-8.085 h 2.325 c -0.276,1.771 -0.388,4.208 -0.388,6.645 h 6.036 v 3.268 c -3.489,-0.332 -1.661,-0.277 -5.371,-0.277 -0.111,3.821 -0.443,8.195 -0.443,13.844 0,2.271 0.056,3.268 1.605,3.268 1.273,0 2.714,-0.499 4.098,-0.941 l 0.831,1.661 c -2.547,1.55 -5.98,3.378 -8.86,3.378 -2.381,0 -4.318,-1.495 -4.318,-5.206 0,-3.599 0.332,-10.908 0.332,-16.279 l -3.655,0.222 v -1.498 z"
   inkscape:connector-curvature="0"
   style="fill:#8c8c8c" />
	<path
   id="path3113"
   d="m 663.558,502.054 c 1.938,-0.11 2.492,-0.276 2.492,-2.049 v -11.352 c 0,-2.879 -0.499,-5.593 -3.987,-5.593 -1.495,0 -3.488,0.72 -5.149,2.104 v 7.254 c 0,8.029 0.166,8.583 0.554,8.971 0.276,0.276 0.775,0.498 2.271,0.664 v 1.772 c -2.049,-0.111 -4.153,-0.222 -6.368,-0.222 -2.215,0 -4.319,0.11 -6.146,0.222 v -1.772 c 1.827,-0.222 2.437,-0.442 2.603,-0.996 0.276,-0.941 0.442,-2.769 0.442,-8.639 v -15.394 c 0,-4.763 -0.221,-7.531 -0.388,-9.524 -0.11,-1.219 -0.442,-1.329 -2.657,-1.44 v -1.771 c 3.267,-0.443 6.534,-1.495 8.583,-3.212 h 1.605 c -0.276,3.378 -0.498,6.922 -0.498,21.651 l 2.713,-2.437 c 1.107,-0.443 2.935,-0.886 4.984,-0.886 5.426,0 8.084,2.159 8.084,7.364 0,4.485 -0.166,8.971 -0.166,13.456 0,1.439 0.166,1.605 2.215,1.827 v 1.772 c -1.827,-0.111 -3.876,-0.222 -5.759,-0.222 -1.605,0 -3.654,0.11 -5.427,0.222 v -1.77 z"
   inkscape:connector-curvature="0"
   style="fill:#8c8c8c" />
	<path
   id="path3115"
   d="m 700.658,500.061 c -3.6,3.378 -7.088,4.375 -10.466,4.375 -7.033,0 -11.961,-4.541 -11.961,-11.519 0,-7.53 4.707,-13.511 12.515,-13.511 4.042,0 10.188,1.661 10.188,10.41 v 1.052 c -2.935,-0.11 -6.091,-0.166 -7.808,-0.166 h -7.697 v 0.997 c 0,4.762 3.489,7.863 8.307,7.863 1.495,0 3.488,-0.499 5.648,-1.385 l 1.274,1.884 z m -15.117,-12.903 c 0,0.886 0.166,1.219 1.052,1.219 2.658,0 4.707,-0.056 5.704,-0.166 1.107,-0.111 1.439,-0.277 1.439,-1.108 0,-2.436 -0.886,-5.371 -3.71,-5.371 -2.935,-0.001 -4.485,2.492 -4.485,5.426 z"
   inkscape:connector-curvature="0"
   style="fill:#8c8c8c" />
	<path
   id="path3117"
   d="m 732.553,464.289 c 3.212,-0.443 6.479,-1.495 8.528,-3.212 h 1.605 c -0.276,3.378 -0.498,6.922 -0.498,19.381 0,18.717 0.055,19.271 0.276,19.824 0.222,0.498 0.886,0.72 2.16,0.83 v 1.661 c -2.658,0.222 -4.984,0.388 -6.258,1.662 h -1.439 c -0.111,-1.274 -0.443,-2.326 -0.886,-3.323 -2.16,1.883 -4.873,3.323 -8.251,3.323 -5.593,0 -10.078,-3.6 -10.078,-10.799 0,-8.14 6.146,-13.4 12.515,-13.4 2.325,0 3.986,0.499 5.315,1.551 v -5.316 c 0,-3.377 -0.166,-6.313 -0.388,-8.97 -0.11,-1.219 -0.442,-1.329 -2.603,-1.44 v -1.772 z m -1.218,36.049 c 1.661,0 2.99,-0.277 4.208,-0.775 0.277,-2.769 0.388,-5.427 0.388,-7.642 0,-7.808 -1.771,-9.358 -5.261,-9.358 -3.433,0 -5.759,3.322 -5.759,8.472 0,5.038 1.994,9.303 6.424,9.303 z"
   inkscape:connector-curvature="0"
   style="fill:#8c8c8c" />
	<path
   id="path3119"
   d="m 760.849,479.406 c 8.029,0 12.57,5.759 12.57,12.293 0,8.583 -6.978,12.736 -13.29,12.736 -8.029,0 -12.681,-5.814 -12.681,-12.294 0,-8.582 7.088,-12.735 13.401,-12.735 z m -0.056,22.039 c 3.544,0 5.095,-2.824 5.095,-7.975 0,-6.922 -2.049,-11.739 -5.814,-11.739 -3.544,0 -5.094,3.046 -5.094,8.195 -10e-4,6.923 2.048,11.519 5.813,11.519 z"
   inkscape:connector-curvature="0"
   style="fill:#8c8c8c" />
	<path
   id="path3121"
   d="m 776.353,481.677 c 4.485,-1.772 6.812,-4.597 7.808,-8.085 h 2.326 c -0.276,1.771 -0.388,4.208 -0.388,6.645 h 6.036 v 3.268 c -3.489,-0.332 -1.661,-0.277 -5.371,-0.277 -0.111,3.821 -0.443,8.195 -0.443,13.844 0,2.271 0.056,3.268 1.605,3.268 1.273,0 2.714,-0.499 4.098,-0.941 l 0.831,1.661 c -2.547,1.55 -5.98,3.378 -8.86,3.378 -2.381,0 -4.318,-1.495 -4.318,-5.206 0,-3.599 0.332,-10.908 0.332,-16.279 l -3.655,0.222 v -1.498 z"
   inkscape:connector-curvature="0"
   style="fill:#8c8c8c" />
	<path
   id="path3123"
   d="m 795.623,495.907 h 2.325 c 0.886,2.16 2.714,6.202 6.812,6.202 2.713,0 3.322,-1.938 3.322,-3.267 0,-4.265 -13.124,-4.541 -13.124,-11.961 0,-4.929 4.43,-7.476 9.303,-7.476 3.434,0 5.98,0.775 7.753,1.439 v 5.925 h -2.326 c -0.83,-3.488 -3.156,-5.039 -6.091,-5.039 -2.104,0 -2.99,1.329 -2.99,2.382 0,1.328 0.498,2.27 7.31,5.481 4.596,2.16 5.481,3.544 5.481,6.812 0,3.765 -2.657,8.029 -9.856,8.029 -3.6,0 -5.427,-0.775 -7.918,-1.883 v -6.644 z"
   inkscape:connector-curvature="0"
   style="fill:#8c8c8c" />
	<path
   id="path3125"
   d="m 822.646,495.741 c 2.381,0 3.654,1.772 3.654,3.876 0,2.714 -1.495,4.984 -4.541,4.984 -2.381,0 -3.654,-1.772 -3.654,-3.877 -10e-4,-2.712 1.495,-4.983 4.541,-4.983 z"
   inkscape:connector-curvature="0"
   style="fill:#8c8c8c" />
</g>
</svg>