<?xml version="1.0" encoding="UTF-8" standalone="yes"?><svg xmlns="http://www.w3.org/2000/svg" xmlns:xlink="http://www.w3.org/1999/xlink" height="956px" style="width:798px;height:956px;" version="1.1" viewBox="0 0 798 956" width="798px"><defs><filter height="300%" id="f1" width="300%" x="-1" y="-1"><feGaussianBlur result="blurOut" stdDeviation="2.0"/><feColorMatrix in="blurOut" result="blurOut2" type="matrix" values="0 0 0 0 0 0 0 0 0 0 0 0 0 0 0 0 0 0 .4 0"/><feOffset dx="4.0" dy="4.0" in="blurOut2" result="blurOut3"/><feBlend in="SourceGraphic" in2="blurOut3" mode="normal"/></filter></defs><g><text fill="#000000" font-family="sans-serif" font-size="18" lengthAdjust="spacingAndGlyphs" textLength="198" x="304.5" y="17.4023">Java Provider Hierarchy</text><rect fill="#FEFECE" filter="url(#f1)" height="151.6406" style="stroke: #A80036; stroke-width: 1.5;" width="525" x="222.5" y="29.1992"/><ellipse cx="442.25" cy="45.1992" fill="#B4A7E5" rx="11" ry="11" style="stroke: #A80036; stroke-width: 1.0;"/><path d="M438.1777,40.9644 L438.1777,38.8062 L445.5571,38.8062 L445.5571,40.9644 L443.0918,40.9644 L443.0918,49.041 L445.5571,49.041 L445.5571,51.1992 L438.1777,51.1992 L438.1777,49.041 L440.6431,49.041 L440.6431,40.9644 Z "/><text fill="#000000" font-family="sans-serif" font-size="12" font-style="italic" lengthAdjust="spacingAndGlyphs" textLength="77" x="462.75" y="49.7344">JoynrProvider</text><line style="stroke: #A80036; stroke-width: 1.5;" x1="223.5" x2="746.5" y1="61.1992" y2="61.1992"/><line style="stroke: #A80036; stroke-width: 1.5;" x1="223.5" x2="746.5" y1="69.1992" y2="69.1992"/><ellipse cx="233.5" cy="81.1768" fill="#84BE84" rx="3" ry="3" style="stroke: #038048; stroke-width: 1.0;"/><text fill="#000000" font-family="sans-serif" font-size="11" lengthAdjust="spacingAndGlyphs" textLength="162" x="242.5" y="83.834">ProviderQos getProviderQos()</text><ellipse cx="233.5" cy="94.1318" fill="#84BE84" rx="3" ry="3" style="stroke: #038048; stroke-width: 1.0;"/><text fill="#000000" font-family="sans-serif" font-size="11" lengthAdjust="spacingAndGlyphs" textLength="174" x="242.5" y="96.7891">Class&lt;?&gt; getProvidedInterface()</text><ellipse cx="233.5" cy="107.0869" fill="#84BE84" rx="3" ry="3" style="stroke: #038048; stroke-width: 1.0;"/><text fill="#000000" font-family="sans-serif" font-size="11" lengthAdjust="spacingAndGlyphs" textLength="137" x="242.5" y="109.7441">String getInterfaceName()</text><ellipse cx="233.5" cy="120.042" fill="#84BE84" rx="3" ry="3" style="stroke: #038048; stroke-width: 1.0;"/><text fill="#000000" font-family="sans-serif" font-size="11" lengthAdjust="spacingAndGlyphs" textLength="467" x="242.5" y="122.6992">void registerAttributeListener(String attributeName, AttributeListener attributeListener)</text><ellipse cx="233.5" cy="132.9971" fill="#84BE84" rx="3" ry="3" style="stroke: #038048; stroke-width: 1.0;"/><text fill="#000000" font-family="sans-serif" font-size="11" lengthAdjust="spacingAndGlyphs" textLength="481" x="242.5" y="135.6543">void unregisterAttributeListener(String attributeName, AttributeListener attributeListener)</text><ellipse cx="233.5" cy="145.9521" fill="#84BE84" rx="3" ry="3" style="stroke: #038048; stroke-width: 1.0;"/><text fill="#000000" font-family="sans-serif" font-size="11" lengthAdjust="spacingAndGlyphs" textLength="485" x="242.5" y="148.6094">void registerBroadcastListener(String broadcastName, BroadcastListener attributeListener)</text><ellipse cx="233.5" cy="158.9072" fill="#84BE84" rx="3" ry="3" style="stroke: #038048; stroke-width: 1.0;"/><text fill="#000000" font-family="sans-serif" font-size="11" lengthAdjust="spacingAndGlyphs" textLength="499" x="242.5" y="161.5645">void unregisterBroadcastListener(String broadcastName, BroadcastListener attributeListener)</text><ellipse cx="233.5" cy="171.8623" fill="#84BE84" rx="3" ry="3" style="stroke: #038048; stroke-width: 1.0;"/><text fill="#000000" font-family="sans-serif" font-size="11" lengthAdjust="spacingAndGlyphs" textLength="265" x="242.5" y="174.5195">void addBroadcastFilter(BroadcastFilterImpl filter)</text><rect fill="#FEFECE" filter="url(#f1)" height="160.5957" style="stroke: #A80036; stroke-width: 1.5;" width="550" x="6" y="249.1992"/><ellipse cx="214.25" cy="265.1992" fill="#A9DCDF" rx="11" ry="11" style="stroke: #A80036; stroke-width: 1.0;"/><path d="M214.3633,260.5474 L213.2095,265.6191 L215.5254,265.6191 Z M212.8691,258.3062 L215.8657,258.3062 L219.2109,270.6992 L216.7622,270.6992 L215.9985,267.6362 L212.7197,267.6362 L211.9727,270.6992 L209.5239,270.6992 Z "/><text fill="#000000" font-family="sans-serif" font-size="12" font-style="italic" lengthAdjust="spacingAndGlyphs" textLength="125" x="234.75" y="269.7344">AbstractJoynrProvider</text><line style="stroke: #A80036; stroke-width: 1.5;" x1="7" x2="555" y1="281.1992" y2="281.1992"/><polygon fill="#FFFF44" points="17,288.1768,21,292.1768,17,296.1768,13,292.1768" style="stroke: #B38D22; stroke-width: 1.0;"/><text fill="#000000" font-family="sans-serif" font-size="11" lengthAdjust="spacingAndGlyphs" textLength="356" x="26" y="295.834">void onAttributeValueChanged(String attributeName, Object value)</text><polygon fill="#FFFF44" points="17,301.1318,21,305.1318,17,309.1318,13,305.1318" style="stroke: #B38D22; stroke-width: 1.0;"/><text fill="#000000" font-family="sans-serif" font-size="11" lengthAdjust="spacingAndGlyphs" textLength="524" x="26" y="308.7891">void fireBroadcast(String broadcastName, List&lt;BroadcastFilter&gt; broadcastFilters, Object... values)</text><ellipse cx="17" cy="336.042" fill="#84BE84" rx="3" ry="3" style="stroke: #038048; stroke-width: 1.0;"/><text fill="#000000" font-family="sans-serif" font-size="11" lengthAdjust="spacingAndGlyphs" textLength="162" x="26" y="338.6992">ProviderQos getProviderQos()</text><ellipse cx="17" cy="348.9971" fill="#84BE84" rx="3" ry="3" style="stroke: #038048; stroke-width: 1.0;"/><text fill="#000000" font-family="sans-serif" font-size="11" lengthAdjust="spacingAndGlyphs" textLength="467" x="26" y="351.6543">void registerAttributeListener(String attributeName, AttributeListener attributeListener)</text><ellipse cx="17" cy="361.9521" fill="#84BE84" rx="3" ry="3" style="stroke: #038048; stroke-width: 1.0;"/><text fill="#000000" font-family="sans-serif" font-size="11" lengthAdjust="spacingAndGlyphs" textLength="481" x="26" y="364.6094">void unregisterAttributeListener(String attributeName, AttributeListener attributeListener)</text><ellipse cx="17" cy="374.9072" fill="#84BE84" rx="3" ry="3" style="stroke: #038048; stroke-width: 1.0;"/><text fill="#000000" font-family="sans-serif" font-size="11" lengthAdjust="spacingAndGlyphs" textLength="485" x="26" y="377.5645">void registerBroadcastListener(String broadcastName, BroadcastListener attributeListener)</text><ellipse cx="17" cy="387.8623" fill="#84BE84" rx="3" ry="3" style="stroke: #038048; stroke-width: 1.0;"/><text fill="#000000" font-family="sans-serif" font-size="11" lengthAdjust="spacingAndGlyphs" textLength="499" x="26" y="390.5195">void unregisterBroadcastListener(String broadcastName, BroadcastListener attributeListener)</text><ellipse cx="17" cy="400.8174" fill="#84BE84" rx="3" ry="3" style="stroke: #038048; stroke-width: 1.0;"/><text fill="#000000" font-family="sans-serif" font-size="11" lengthAdjust="spacingAndGlyphs" textLength="265" x="26" y="403.4746">void addBroadcastFilter(BroadcastFilterImpl filter)</text><line style="stroke: #A80036; stroke-width: 1.0;" x1="7" x2="253" y1="321.5869" y2="321.5869"/><text fill="#000000" font-family="sans-serif" font-size="11" lengthAdjust="spacingAndGlyphs" textLength="56" x="253" y="325.2441">@Override</text><line style="stroke: #A80036; stroke-width: 1.0;" x1="309" x2="555" y1="321.5869" y2="321.5869"/><rect fill="#FEFECE" filter="url(#f1)" height="176.5957" style="stroke: #A80036; stroke-width: 1.5;" width="198" x="591" y="241.1992"/><ellipse cx="627.6" cy="257.1992" fill="#B4A7E5" rx="11" ry="11" style="stroke: #A80036; stroke-width: 1.0;"/><path d="M623.5277,252.9644 L623.5277,250.8062 L630.9071,250.8062 L630.9071,252.9644 L628.4418,252.9644 L628.4418,261.041 L630.9071,261.041 L630.9071,263.1992 L623.5277,263.1992 L623.5277,261.041 L625.9931,261.041 L625.9931,252.9644 Z "/><text fill="#000000" font-family="sans-serif" font-size="12" font-style="italic" lengthAdjust="spacingAndGlyphs" textLength="118" x="646.4" y="261.7344">&lt;Interface&gt;Provider</text><line style="stroke: #A80036; stroke-width: 1.5;" x1="592" x2="788" y1="273.1992" y2="273.1992"/><ellipse cx="602" cy="285.1768" fill="none" rx="3" ry="3" style="stroke: #038048; stroke-width: 1.0;"/><text fill="#000000" font-family="sans-serif" font-size="11" lengthAdjust="spacingAndGlyphs" text-decoration="underline" textLength="131" x="611" y="287.834">String INTERFACE_NAME</text><line style="stroke: #000000; stroke-width: 1.0;" x1="611" x2="742" y1="289.834" y2="289.834"/><line style="stroke: #A80036; stroke-width: 1.5;" x1="592" x2="788" y1="294.1543" y2="294.1543"/><ellipse cx="602" cy="323.0869" fill="#84BE84" rx="3" ry="3" style="stroke: #038048; stroke-width: 1.0;"/><text fill="#000000" font-family="sans-serif" font-size="11" lengthAdjust="spacingAndGlyphs" textLength="164" x="611" y="325.7441">Promise&lt;...&gt; get&lt;Attribute&gt;()</text><ellipse cx="602" cy="336.042" fill="#84BE84" rx="3" ry="3" style="stroke: #038048; stroke-width: 1.0;"/><text fill="#000000" font-family="sans-serif" font-size="11" lengthAdjust="spacingAndGlyphs" textLength="172" x="611" y="338.6992">Promise&lt;...&gt; set&lt;Attribute&gt;(...)</text><ellipse cx="602" cy="348.9971" fill="#84BE84" rx="3" ry="3" style="stroke: #038048; stroke-width: 1.0;"/><text fill="#000000" font-family="sans-serif" font-size="11" lengthAdjust="spacingAndGlyphs" textLength="155" x="611" y="351.6543">void &lt;attribute&gt;Changed(...)</text><line style="stroke: #A80036; stroke-width: 1.0; stroke-dasharray: 1.0,2.0;" x1="592" x2="663" y1="308.6318" y2="308.6318"/><text fill="#000000" font-family="sans-serif" font-size="11" lengthAdjust="spacingAndGlyphs" textLength="54" x="663" y="312.2891">Attributes</text><line style="stroke: #A80036; stroke-width: 1.0; stroke-dasharray: 1.0,2.0;" x1="717" x2="788" y1="308.6318" y2="308.6318"/><ellipse cx="602" cy="378.9072" fill="#84BE84" rx="3" ry="3" style="stroke: #038048; stroke-width: 1.0;"/><text fill="#000000" font-family="sans-serif" font-size="11" lengthAdjust="spacingAndGlyphs" textLength="149" x="611" y="381.5645">Promise&lt;...&gt; &lt;method&gt;(...)</text><line style="stroke: #A80036; stroke-width: 1.0; stroke-dasharray: 1.0,2.0;" x1="592" x2="667" y1="364.4521" y2="364.4521"/><text fill="#000000" font-family="sans-serif" font-size="11" lengthAdjust="spacingAndGlyphs" textLength="46" x="667" y="368.1094">Methods</text><line style="stroke: #A80036; stroke-width: 1.0; stroke-dasharray: 1.0,2.0;" x1="713" x2="788" y1="364.4521" y2="364.4521"/><ellipse cx="602" cy="408.8174" fill="#84BE84" rx="3" ry="3" style="stroke: #038048; stroke-width: 1.0;"/><text fill="#000000" font-family="sans-serif" font-size="11" lengthAdjust="spacingAndGlyphs" textLength="132" x="611" y="411.4746">void fire&lt;Broadcast&gt;(...)</text><line style="stroke: #A80036; stroke-width: 1.0; stroke-dasharray: 1.0,2.0;" x1="592" x2="660.5" y1="394.3623" y2="394.3623"/><text fill="#000000" font-family="sans-serif" font-size="11" lengthAdjust="spacingAndGlyphs" textLength="59" x="660.5" y="398.0195">Broadcasts</text><line style="stroke: #A80036; stroke-width: 1.0; stroke-dasharray: 1.0,2.0;" x1="719.5" x2="788" y1="394.3623" y2="394.3623"/><rect fill="#FEFECE" filter="url(#f1)" height="142.6855" style="stroke: #A80036; stroke-width: 1.5;" width="200" x="385" y="478.1992"/><ellipse cx="400.9" cy="494.1992" fill="#A9DCDF" rx="11" ry="11" style="stroke: #A80036; stroke-width: 1.0;"/><path d="M401.0133,489.5474 L399.8595,494.6191 L402.1754,494.6191 Z M399.5191,487.3062 L402.5157,487.3062 L405.8609,499.6992 L403.4122,499.6992 L402.6485,496.6362 L399.3697,496.6362 L398.6227,499.6992 L396.1739,499.6992 Z "/><text fill="#000000" font-family="sans-serif" font-size="12" font-style="italic" lengthAdjust="spacingAndGlyphs" textLength="166" x="415.1" y="498.7344">&lt;Interface&gt;AbstractProvider</text><line style="stroke: #A80036; stroke-width: 1.5;" x1="386" x2="584" y1="510.1992" y2="510.1992"/><ellipse cx="396" cy="539.1318" fill="#84BE84" rx="3" ry="3" style="stroke: #038048; stroke-width: 1.0;"/><text fill="#000000" font-family="sans-serif" font-size="11" lengthAdjust="spacingAndGlyphs" textLength="174" x="405" y="541.7891">Class&lt;?&gt; getProvidedInterface()</text><ellipse cx="396" cy="552.0869" fill="#84BE84" rx="3" ry="3" style="stroke: #038048; stroke-width: 1.0;"/><text fill="#000000" font-family="sans-serif" font-size="11" lengthAdjust="spacingAndGlyphs" textLength="137" x="405" y="554.7441">String getInterfaceName()</text><line style="stroke: #A80036; stroke-width: 1.0;" x1="386" x2="457" y1="524.6768" y2="524.6768"/><text fill="#000000" font-family="sans-serif" font-size="11" lengthAdjust="spacingAndGlyphs" textLength="56" x="457" y="528.334">@Override</text><line style="stroke: #A80036; stroke-width: 1.0;" x1="513" x2="584" y1="524.6768" y2="524.6768"/><ellipse cx="396" cy="581.9971" fill="#84BE84" rx="3" ry="3" style="stroke: #038048; stroke-width: 1.0;"/><text fill="#000000" font-family="sans-serif" font-size="11" lengthAdjust="spacingAndGlyphs" textLength="155" x="405" y="584.6543">void &lt;attribute&gt;Changed(...)</text><line style="stroke: #A80036; stroke-width: 1.0; stroke-dasharray: 1.0,2.0;" x1="386" x2="458" y1="567.542" y2="567.542"/><text fill="#000000" font-family="sans-serif" font-size="11" lengthAdjust="spacingAndGlyphs" textLength="54" x="458" y="571.1992">Attributes</text><line style="stroke: #A80036; stroke-width: 1.0; stroke-dasharray: 1.0,2.0;" x1="512" x2="584" y1="567.542" y2="567.542"/><ellipse cx="396" cy="611.9072" fill="#84BE84" rx="3" ry="3" style="stroke: #038048; stroke-width: 1.0;"/><text fill="#000000" font-family="sans-serif" font-size="11" lengthAdjust="spacingAndGlyphs" textLength="132" x="405" y="614.5645">void fire&lt;Broadcast&gt;(...)</text><line style="stroke: #A80036; stroke-width: 1.0; stroke-dasharray: 1.0,2.0;" x1="386" x2="455.5" y1="597.4521" y2="597.4521"/><text fill="#000000" font-family="sans-serif" font-size="11" lengthAdjust="spacingAndGlyphs" textLength="59" x="455.5" y="601.1094">Broadcasts</text><line style="stroke: #A80036; stroke-width: 1.0; stroke-dasharray: 1.0,2.0;" x1="514.5" x2="584" y1="597.4521" y2="597.4521"/><rect fill="#FEFECE" filter="url(#f1)" height="145.1631" style="stroke: #A80036; stroke-width: 1.5;" width="198" x="256" y="681.1992"/><ellipse cx="274.15" cy="697.1992" fill="#ADD1B2" rx="11" ry="11" style="stroke: #A80036; stroke-width: 1.0;"/><path d="M277.1231,702.8423 Q276.5421,703.1411 275.9029,703.2905 Q275.2638,703.4399 274.5582,703.4399 Q272.0514,703.4399 270.7315,701.7881 Q269.4117,700.1362 269.4117,697.0151 Q269.4117,693.8857 270.7315,692.2339 Q272.0514,690.582 274.5582,690.582 Q275.2638,690.582 275.9112,690.7314 Q276.5587,690.8809 277.1231,691.1797 L277.1231,693.9023 Q276.4923,693.3213 275.8988,693.0515 Q275.3053,692.7817 274.6744,692.7817 Q273.3297,692.7817 272.6449,693.8484 Q271.9601,694.915 271.9601,697.0151 Q271.9601,699.1069 272.6449,700.1736 Q273.3297,701.2402 274.6744,701.2402 Q275.3053,701.2402 275.8988,700.9705 Q276.4923,700.7007 277.1231,700.1196 Z "/><text fill="#000000" font-family="sans-serif" font-size="12" lengthAdjust="spacingAndGlyphs" textLength="159" x="288.85" y="701.7344">Default&lt;Interface&gt;Provider</text><line style="stroke: #A80036; stroke-width: 1.5;" x1="257" x2="453" y1="713.1992" y2="713.1992"/><polygon fill="none" points="267,720.1768,271,724.1768,267,728.1768,263,724.1768" style="stroke: #B38D22; stroke-width: 1.0;"/><text fill="#000000" font-family="sans-serif" font-size="11" lengthAdjust="spacingAndGlyphs" textLength="111" x="276" y="727.834">&lt;Type&gt; &lt;attribute&gt;</text><line style="stroke: #A80036; stroke-width: 1.0;" x1="257" x2="327" y1="740.6318" y2="740.6318"/><text fill="#000000" font-family="sans-serif" font-size="11" lengthAdjust="spacingAndGlyphs" textLength="56" x="327" y="744.2891">@Override</text><line style="stroke: #A80036; stroke-width: 1.0;" x1="383" x2="453" y1="740.6318" y2="740.6318"/><ellipse cx="267" cy="774.5195" fill="#84BE84" rx="3" ry="3" style="stroke: #038048; stroke-width: 1.0;"/><text fill="#000000" font-family="sans-serif" font-size="11" lengthAdjust="spacingAndGlyphs" textLength="164" x="276" y="777.1768">Promise&lt;...&gt; get&lt;Attribute&gt;()</text><ellipse cx="267" cy="787.4746" fill="#84BE84" rx="3" ry="3" style="stroke: #038048; stroke-width: 1.0;"/><text fill="#000000" font-family="sans-serif" font-size="11" lengthAdjust="spacingAndGlyphs" textLength="172" x="276" y="790.1318">Promise&lt;...&gt; set&lt;Attribute&gt;(...)</text><line style="stroke: #A80036; stroke-width: 1.0; stroke-dasharray: 1.0,2.0;" x1="257" x2="328" y1="760.0645" y2="760.0645"/><text fill="#000000" font-family="sans-serif" font-size="11" lengthAdjust="spacingAndGlyphs" textLength="54" x="328" y="763.7217">Attributes</text><line style="stroke: #A80036; stroke-width: 1.0; stroke-dasharray: 1.0,2.0;" x1="382" x2="453" y1="760.0645" y2="760.0645"/><ellipse cx="267" cy="817.3848" fill="#84BE84" rx="3" ry="3" style="stroke: #038048; stroke-width: 1.0;"/><text fill="#000000" font-family="sans-serif" font-size="11" lengthAdjust="spacingAndGlyphs" textLength="149" x="276" y="820.042">Promise&lt;...&gt; &lt;method&gt;(...)</text><line style="stroke: #A80036; stroke-width: 1.0; stroke-dasharray: 1.0,2.0;" x1="257" x2="332" y1="802.9297" y2="802.9297"/><text fill="#000000" font-family="sans-serif" font-size="11" lengthAdjust="spacingAndGlyphs" textLength="46" x="332" y="806.5869">Methods</text><line style="stroke: #A80036; stroke-width: 1.0; stroke-dasharray: 1.0,2.0;" x1="378" x2="453" y1="802.9297" y2="802.9297"/><rect fill="#FEFECE" filter="url(#f1)" height="60.9551" style="stroke: #A80036; stroke-width: 1.5;" width="251" x="489.5" y="723.1992"/><ellipse cx="508.1" cy="739.1992" fill="#ADD1B2" rx="11" ry="11" style="stroke: #A80036; stroke-width: 1.0;"/><path d="M511.0731,744.8423 Q510.4921,745.1411 509.8529,745.2905 Q509.2138,745.4399 508.5082,745.4399 Q506.0014,745.4399 504.6815,743.7881 Q503.3617,742.1362 503.3617,739.0151 Q503.3617,735.8857 504.6815,734.2339 Q506.0014,732.582 508.5082,732.582 Q509.2138,732.582 509.8612,732.7314 Q510.5087,732.8809 511.0731,733.1797 L511.0731,735.9023 Q510.4423,735.3213 509.8488,735.0515 Q509.2553,734.7817 508.6244,734.7817 Q507.2797,734.7817 506.5949,735.8484 Q505.9101,736.915 505.9101,739.0151 Q505.9101,741.1069 506.5949,742.1736 Q507.2797,743.2402 508.6244,743.2402 Q509.2553,743.2402 509.8488,742.9705 Q510.4423,742.7007 511.0731,742.1196 Z "/><text fill="#000000" font-family="sans-serif" font-size="12" lengthAdjust="spacingAndGlyphs" textLength="211" x="522.9" y="743.7344">Option A: MyProviderImplementation</text><line style="stroke: #A80036; stroke-width: 1.5;" x1="490.5" x2="739.5" y1="755.1992" y2="755.1992"/><text fill="#000000" font-family="sans-serif" font-size="11" lengthAdjust="spacingAndGlyphs" textLength="239" x="495.5" y="769.834">Put your provider implementation code here.</text><line style="stroke: #A80036; stroke-width: 1.5;" x1="490.5" x2="739.5" y1="776.1543" y2="776.1543"/><rect fill="#FEFECE" filter="url(#f1)" height="60.9551" style="stroke: #A80036; stroke-width: 1.5;" width="251" x="229.5" y="886.1992"/><ellipse cx="248.55" cy="902.1992" fill="#ADD1B2" rx="11" ry="11" style="stroke: #A80036; stroke-width: 1.0;"/><path d="M251.5231,907.8423 Q250.9421,908.1411 250.3029,908.2905 Q249.6638,908.4399 248.9582,908.4399 Q246.4514,908.4399 245.1315,906.7881 Q243.8117,905.1362 243.8117,902.0151 Q243.8117,898.8857 245.1315,897.2339 Q246.4514,895.582 248.9582,895.582 Q249.6638,895.582 250.3112,895.7314 Q250.9587,895.8809 251.5231,896.1797 L251.5231,898.9023 Q250.8923,898.3213 250.2988,898.0515 Q249.7053,897.7817 249.0744,897.7817 Q247.7297,897.7817 247.0449,898.8484 Q246.3601,899.915 246.3601,902.0151 Q246.3601,904.1069 247.0449,905.1736 Q247.7297,906.2402 249.0744,906.2402 Q249.7053,906.2402 250.2988,905.9705 Q250.8923,905.7007 251.5231,905.1196 Z "/><text fill="#000000" font-family="sans-serif" font-size="12" lengthAdjust="spacingAndGlyphs" textLength="210" x="263.45" y="906.7344">Option B: MyProivderImplementation</text><line style="stroke: #A80036; stroke-width: 1.5;" x1="230.5" x2="479.5" y1="918.1992" y2="918.1992"/><text fill="#000000" font-family="sans-serif" font-size="11" lengthAdjust="spacingAndGlyphs" textLength="239" x="235.5" y="932.834">Put your provider implementation code here.</text><line style="stroke: #A80036; stroke-width: 1.5;" x1="230.5" x2="479.5" y1="939.1543" y2="939.1543"/><path d="M568.037,196.3252 C581.599,211.0442 595.632,226.2752 609.14,240.9362 " fill="none" style="stroke: #A80036; stroke-width: 1.0;"/><polygon fill="none" points="562.522,200.6692,554.118,181.2172,572.818,191.1832,562.522,200.6692" style="stroke: #A80036; stroke-width: 1.0;"/><path d="M402.607,196.0642 C386.527,213.6022 369.771,231.8782 354.02,249.0572 " fill="none" style="stroke: #A80036; stroke-width: 1.0; stroke-dasharray: 7.0,7.0;"/><polygon fill="none" points="397.544,191.2282,416.219,181.2172,407.863,200.6902,397.544,191.2282" style="stroke: #A80036; stroke-width: 1.0;"/><path d="M369.304,425.0632 C385.905,442.8032 402.999,461.0702 418.784,477.9382 " fill="none" style="stroke: #A80036; stroke-width: 1.0;"/><polygon fill="none" points="364.069,429.7142,355.515,410.3272,374.291,420.1482,364.069,429.7142" style="stroke: #A80036; stroke-width: 1.0;"/><path d="M593.439,433.3842 C579.282,448.4382 564.974,463.6542 551.599,477.8772 " fill="none" style="stroke: #A80036; stroke-width: 1.0; stroke-dasharray: 7.0,7.0;"/><polygon fill="none" points="588.704,428.2002,607.505,418.4262,598.903,437.7912,588.704,428.2002" style="stroke: #A80036; stroke-width: 1.0;"/><path d="M428.524,638.4542 C419.365,652.6862 409.976,667.2752 401.102,681.0642 " fill="none" style="stroke: #A80036; stroke-width: 1.0;"/><polygon fill="none" points="422.822,634.3792,439.532,621.3492,434.595,641.9552,422.822,634.3792" style="stroke: #A80036; stroke-width: 1.0;"/><path d="M541.482,638.4632 C561.022,668.8252 581.606,700.8102 596.008,723.1882 " fill="none" style="stroke: #A80036; stroke-width: 1.0;"/><polygon fill="none" points="535.405,641.9552,530.468,621.3492,547.178,634.3792,535.405,641.9552" style="stroke: #A80036; stroke-width: 1.0;"/><path d="M355,846.4912 C355,860.7147 355,874.4582 355,885.898 " fill="none" style="stroke: #A80036; stroke-width: 1.0;"/><polygon fill="none" points="348,846.2542,355,826.2542,362,846.2542,348,846.2542" style="stroke: #A80036; stroke-width: 1.0;"/></g></svg>