<?xml version="1.0" encoding="UTF-8" standalone="yes"?><svg xmlns="http://www.w3.org/2000/svg" xmlns:xlink="http://www.w3.org/1999/xlink" height="1082px" style="width:1691px;height:1082px;" version="1.1" viewBox="0 0 1691 1082" width="1691px"><defs><filter height="300%" id="f1" width="300%" x="-1" y="-1"><feGaussianBlur result="blurOut" stdDeviation="2.0"/><feColorMatrix in="blurOut" result="blurOut2" type="matrix" values="0 0 0 0 0 0 0 0 0 0 0 0 0 0 0 0 0 0 .4 0"/><feOffset dx="4.0" dy="4.0" in="blurOut2" result="blurOut3"/><feBlend in="SourceGraphic" in2="blurOut3" mode="normal"/></filter></defs><g><text fill="#000000" font-family="sans-serif" font-size="18" lengthAdjust="spacingAndGlyphs" textLength="198" x="751.5" y="17.4023">Java Provider Hierarchy</text><rect fill="#FEFECE" filter="url(#f1)" height="48" style="stroke: #A80036; stroke-width: 1.5;" width="109" x="207" y="232.6992"/><ellipse cx="222" cy="248.6992" fill="#B4A7E5" rx="11" ry="11" style="stroke: #A80036; stroke-width: 1.0;"/><path d="M217.9277,244.4644 L217.9277,242.3062 L225.3071,242.3062 L225.3071,244.4644 L222.8418,244.4644 L222.8418,252.541 L225.3071,252.541 L225.3071,254.6992 L217.9277,254.6992 L217.9277,252.541 L220.3931,252.541 L220.3931,244.4644 Z "/><text fill="#000000" font-family="sans-serif" font-size="12" font-style="italic" lengthAdjust="spacingAndGlyphs" textLength="77" x="236" y="253.2344">JoynrProvider</text><line style="stroke: #A80036; stroke-width: 1.5;" x1="208" x2="315" y1="264.6992" y2="264.6992"/><line style="stroke: #A80036; stroke-width: 1.5;" x1="208" x2="315" y1="272.6992" y2="272.6992"/><rect fill="#FEFECE" filter="url(#f1)" height="73.9102" style="stroke: #A80036; stroke-width: 1.5;" width="306" x="1376.5" y="42.1992"/><ellipse cx="1463.75" cy="58.1992" fill="#B4A7E5" rx="11" ry="11" style="stroke: #A80036; stroke-width: 1.0;"/><path d="M1459.6777,53.9644 L1459.6777,51.8062 L1467.0571,51.8062 L1467.0571,53.9644 L1464.5918,53.9644 L1464.5918,62.041 L1467.0571,62.041 L1467.0571,64.1992 L1459.6777,64.1992 L1459.6777,62.041 L1462.1431,62.041 L1462.1431,53.9644 Z "/><text fill="#000000" font-family="sans-serif" font-size="12" font-style="italic" lengthAdjust="spacingAndGlyphs" textLength="123" x="1484.25" y="62.7344">SubscriptionPublisher</text><line style="stroke: #A80036; stroke-width: 1.5;" x1="1377.5" x2="1681.5" y1="74.1992" y2="74.1992"/><line style="stroke: #A80036; stroke-width: 1.5;" x1="1377.5" x2="1681.5" y1="82.1992" y2="82.1992"/><ellipse cx="1387.5" cy="94.1768" fill="#84BE84" rx="3" ry="3" style="stroke: #038048; stroke-width: 1.0;"/><text fill="#000000" font-family="sans-serif" font-size="11" lengthAdjust="spacingAndGlyphs" textLength="265" x="1396.5" y="96.834">void addBroadcastFilter(BroadcastFilterImpl filter)</text><ellipse cx="1387.5" cy="107.1318" fill="#84BE84" rx="3" ry="3" style="stroke: #038048; stroke-width: 1.0;"/><text fill="#000000" font-family="sans-serif" font-size="11" lengthAdjust="spacingAndGlyphs" textLength="280" x="1396.5" y="109.7891">void addBroadcastFilter(BroadcastFilterImpl... filters)</text><rect fill="#FEFECE" filter="url(#f1)" height="99.8203" style="stroke: #A80036; stroke-width: 1.5;" width="525" x="816" y="29.1992"/><ellipse cx="979.75" cy="45.1992" fill="#B4A7E5" rx="11" ry="11" style="stroke: #A80036; stroke-width: 1.0;"/><path d="M975.6777,40.9644 L975.6777,38.8062 L983.0571,38.8062 L983.0571,40.9644 L980.5918,40.9644 L980.5918,49.041 L983.0571,49.041 L983.0571,51.1992 L975.6777,51.1992 L975.6777,49.041 L978.1431,49.041 L978.1431,40.9644 Z "/><text fill="#000000" font-family="sans-serif" font-size="12" font-style="italic" lengthAdjust="spacingAndGlyphs" textLength="189" x="1000.25" y="49.7344">SubscriptionPublisherObservable</text><line style="stroke: #A80036; stroke-width: 1.5;" x1="817" x2="1340" y1="61.1992" y2="61.1992"/><line style="stroke: #A80036; stroke-width: 1.5;" x1="817" x2="1340" y1="69.1992" y2="69.1992"/><ellipse cx="827" cy="81.1768" fill="#84BE84" rx="3" ry="3" style="stroke: #038048; stroke-width: 1.0;"/><text fill="#000000" font-family="sans-serif" font-size="11" lengthAdjust="spacingAndGlyphs" textLength="467" x="836" y="83.834">void registerAttributeListener(String attributeName, AttributeListener attributeListener)</text><ellipse cx="827" cy="94.1318" fill="#84BE84" rx="3" ry="3" style="stroke: #038048; stroke-width: 1.0;"/><text fill="#000000" font-family="sans-serif" font-size="11" lengthAdjust="spacingAndGlyphs" textLength="481" x="836" y="96.7891">void unregisterAttributeListener(String attributeName, AttributeListener attributeListener)</text><ellipse cx="827" cy="107.0869" fill="#84BE84" rx="3" ry="3" style="stroke: #038048; stroke-width: 1.0;"/><text fill="#000000" font-family="sans-serif" font-size="11" lengthAdjust="spacingAndGlyphs" textLength="485" x="836" y="109.7441">void registerBroadcastListener(String broadcastName, BroadcastListener attributeListener)</text><ellipse cx="827" cy="120.042" fill="#84BE84" rx="3" ry="3" style="stroke: #038048; stroke-width: 1.0;"/><text fill="#000000" font-family="sans-serif" font-size="11" lengthAdjust="spacingAndGlyphs" textLength="499" x="836" y="122.6992">void unregisterBroadcastListener(String broadcastName, BroadcastListener attributeListener)</text><rect fill="#FEFECE" filter="url(#f1)" height="48" style="stroke: #A80036; stroke-width: 1.5;" width="273" x="440" y="232.6992"/><ellipse cx="455" cy="248.6992" fill="#B4A7E5" rx="11" ry="11" style="stroke: #A80036; stroke-width: 1.0;"/><path d="M450.9277,244.4644 L450.9277,242.3062 L458.3071,242.3062 L458.3071,244.4644 L455.8418,244.4644 L455.8418,252.541 L458.3071,252.541 L458.3071,254.6992 L450.9277,254.6992 L450.9277,252.541 L453.3931,252.541 L453.3931,244.4644 Z "/><text fill="#000000" font-family="sans-serif" font-size="12" font-style="italic" lengthAdjust="spacingAndGlyphs" textLength="241" x="469" y="253.2344">&lt;Interface&gt;SubscriptionPublisherInjection</text><line style="stroke: #A80036; stroke-width: 1.5;" x1="441" x2="712" y1="264.6992" y2="264.6992"/><line style="stroke: #A80036; stroke-width: 1.5;" x1="441" x2="712" y1="272.6992" y2="272.6992"/><rect fill="#FEFECE" filter="url(#f1)" height="60.9551" style="stroke: #A80036; stroke-width: 1.5;" width="408" x="372.5" y="48.6992"/><ellipse cx="387.5" cy="64.6992" fill="#B4A7E5" rx="11" ry="11" style="stroke: #A80036; stroke-width: 1.0;"/><path d="M383.4277,60.4644 L383.4277,58.3062 L390.8071,58.3062 L390.8071,60.4644 L388.3418,60.4644 L388.3418,68.541 L390.8071,68.541 L390.8071,70.6992 L383.4277,70.6992 L383.4277,68.541 L385.8931,68.541 L385.8931,60.4644 Z "/><text fill="#000000" font-family="sans-serif" font-size="12" font-style="italic" lengthAdjust="spacingAndGlyphs" textLength="376" x="401.5" y="69.2344">SubscriptionPublisherInjection&lt;T extends SubscriptionPublisher&gt;</text><line style="stroke: #A80036; stroke-width: 1.5;" x1="373.5" x2="779.5" y1="80.6992" y2="80.6992"/><line style="stroke: #A80036; stroke-width: 1.5;" x1="373.5" x2="779.5" y1="88.6992" y2="88.6992"/><ellipse cx="383.5" cy="100.6768" fill="#84BE84" rx="3" ry="3" style="stroke: #038048; stroke-width: 1.0;"/><text fill="#000000" font-family="sans-serif" font-size="11" lengthAdjust="spacingAndGlyphs" textLength="299" x="392.5" y="103.334">void setSubscriptionPublisher(T subscriptionPublisher);</text><rect fill="#FEFECE" filter="url(#f1)" height="134.6855" style="stroke: #A80036; stroke-width: 1.5;" width="525" x="857" y="189.1992"/><ellipse cx="1029.75" cy="205.1992" fill="#A9DCDF" rx="11" ry="11" style="stroke: #A80036; stroke-width: 1.0;"/><path d="M1029.8633,200.5474 L1028.7095,205.6191 L1031.0254,205.6191 Z M1028.3691,198.3062 L1031.3657,198.3062 L1034.7109,210.6992 L1032.2622,210.6992 L1031.4985,207.6362 L1028.2197,207.6362 L1027.4727,210.6992 L1025.0239,210.6992 Z "/><text fill="#000000" font-family="sans-serif" font-size="12" font-style="italic" lengthAdjust="spacingAndGlyphs" textLength="171" x="1050.25" y="209.7344">AbstractSubscriptionPublisher</text><line style="stroke: #A80036; stroke-width: 1.5;" x1="858" x2="1381" y1="221.1992" y2="221.1992"/><ellipse cx="868" cy="250.1318" fill="#84BE84" rx="3" ry="3" style="stroke: #038048; stroke-width: 1.0;"/><text fill="#000000" font-family="sans-serif" font-size="11" lengthAdjust="spacingAndGlyphs" textLength="467" x="877" y="252.7891">void registerAttributeListener(String attributeName, AttributeListener attributeListener)</text><ellipse cx="868" cy="263.0869" fill="#84BE84" rx="3" ry="3" style="stroke: #038048; stroke-width: 1.0;"/><text fill="#000000" font-family="sans-serif" font-size="11" lengthAdjust="spacingAndGlyphs" textLength="481" x="877" y="265.7441">void unregisterAttributeListener(String attributeName, AttributeListener attributeListener)</text><ellipse cx="868" cy="276.042" fill="#84BE84" rx="3" ry="3" style="stroke: #038048; stroke-width: 1.0;"/><text fill="#000000" font-family="sans-serif" font-size="11" lengthAdjust="spacingAndGlyphs" textLength="485" x="877" y="278.6992">void registerBroadcastListener(String broadcastName, BroadcastListener attributeListener)</text><ellipse cx="868" cy="288.9971" fill="#84BE84" rx="3" ry="3" style="stroke: #038048; stroke-width: 1.0;"/><text fill="#000000" font-family="sans-serif" font-size="11" lengthAdjust="spacingAndGlyphs" textLength="499" x="877" y="291.6543">void unregisterBroadcastListener(String broadcastName, BroadcastListener attributeListener)</text><ellipse cx="868" cy="301.9521" fill="#84BE84" rx="3" ry="3" style="stroke: #038048; stroke-width: 1.0;"/><text fill="#000000" font-family="sans-serif" font-size="11" lengthAdjust="spacingAndGlyphs" textLength="265" x="877" y="304.6094">void addBroadcastFilter(BroadcastFilterImpl filter)</text><ellipse cx="868" cy="314.9072" fill="#84BE84" rx="3" ry="3" style="stroke: #038048; stroke-width: 1.0;"/><text fill="#000000" font-family="sans-serif" font-size="11" lengthAdjust="spacingAndGlyphs" textLength="280" x="877" y="317.5645">void addBroadcastFilter(BroadcastFilterImpl... filters)</text><line style="stroke: #A80036; stroke-width: 1.0;" x1="858" x2="1091.5" y1="235.6768" y2="235.6768"/><text fill="#000000" font-family="sans-serif" font-size="11" lengthAdjust="spacingAndGlyphs" textLength="56" x="1091.5" y="239.334">@Override</text><line style="stroke: #A80036; stroke-width: 1.0;" x1="1147.5" x2="1381" y1="235.6768" y2="235.6768"/><rect fill="#FEFECE" filter="url(#f1)" height="99.8203" style="stroke: #A80036; stroke-width: 1.5;" width="225" x="1417" y="206.6992"/><ellipse cx="1432" cy="222.6992" fill="#B4A7E5" rx="11" ry="11" style="stroke: #A80036; stroke-width: 1.0;"/><path d="M1427.9277,218.4644 L1427.9277,216.3062 L1435.3071,216.3062 L1435.3071,218.4644 L1432.8418,218.4644 L1432.8418,226.541 L1435.3071,226.541 L1435.3071,228.6992 L1427.9277,228.6992 L1427.9277,226.541 L1430.3931,226.541 L1430.3931,218.4644 Z "/><text fill="#000000" font-family="sans-serif" font-size="12" font-style="italic" lengthAdjust="spacingAndGlyphs" textLength="193" x="1446" y="227.2344">&lt;Interface&gt;SubscriptionPublisher</text><line style="stroke: #A80036; stroke-width: 1.5;" x1="1418" x2="1641" y1="238.6992" y2="238.6992"/><ellipse cx="1428" cy="267.6318" fill="#84BE84" rx="3" ry="3" style="stroke: #038048; stroke-width: 1.0;"/><text fill="#000000" font-family="sans-serif" font-size="11" lengthAdjust="spacingAndGlyphs" textLength="155" x="1437" y="270.2891">void &lt;attribute&gt;Changed(...)</text><line style="stroke: #A80036; stroke-width: 1.0; stroke-dasharray: 1.0,2.0;" x1="1418" x2="1502.5" y1="253.1768" y2="253.1768"/><text fill="#000000" font-family="sans-serif" font-size="11" lengthAdjust="spacingAndGlyphs" textLength="54" x="1502.5" y="256.834">Attributes</text><line style="stroke: #A80036; stroke-width: 1.0; stroke-dasharray: 1.0,2.0;" x1="1556.5" x2="1641" y1="253.1768" y2="253.1768"/><ellipse cx="1428" cy="297.542" fill="#84BE84" rx="3" ry="3" style="stroke: #038048; stroke-width: 1.0;"/><text fill="#000000" font-family="sans-serif" font-size="11" lengthAdjust="spacingAndGlyphs" textLength="132" x="1437" y="300.1992">void fire&lt;Broadcast&gt;(...)</text><line style="stroke: #A80036; stroke-width: 1.0; stroke-dasharray: 1.0,2.0;" x1="1418" x2="1500" y1="283.0869" y2="283.0869"/><text fill="#000000" font-family="sans-serif" font-size="11" lengthAdjust="spacingAndGlyphs" textLength="59" x="1500" y="286.7441">Broadcasts</text><line style="stroke: #A80036; stroke-width: 1.0; stroke-dasharray: 1.0,2.0;" x1="1559" x2="1641" y1="283.0869" y2="283.0869"/><rect fill="#FEFECE" filter="url(#f1)" height="119.2529" style="stroke: #A80036; stroke-width: 1.5;" width="250" x="1199.5" y="404.6992"/><ellipse cx="1214.5" cy="420.6992" fill="#ADD1B2" rx="11" ry="11" style="stroke: #A80036; stroke-width: 1.0;"/><path d="M1217.4731,426.3423 Q1216.8921,426.6411 1216.2529,426.7905 Q1215.6138,426.9399 1214.9082,426.9399 Q1212.4014,426.9399 1211.0815,425.2881 Q1209.7617,423.6362 1209.7617,420.5151 Q1209.7617,417.3857 1211.0815,415.7339 Q1212.4014,414.082 1214.9082,414.082 Q1215.6138,414.082 1216.2612,414.2314 Q1216.9087,414.3809 1217.4731,414.6797 L1217.4731,417.4023 Q1216.8423,416.8213 1216.2488,416.5515 Q1215.6553,416.2817 1215.0244,416.2817 Q1213.6797,416.2817 1212.9949,417.3484 Q1212.3101,418.415 1212.3101,420.5151 Q1212.3101,422.6069 1212.9949,423.6736 Q1213.6797,424.7402 1215.0244,424.7402 Q1215.6553,424.7402 1216.2488,424.4705 Q1216.8423,424.2007 1217.4731,423.6196 Z "/><text fill="#000000" font-family="sans-serif" font-size="12" lengthAdjust="spacingAndGlyphs" textLength="218" x="1228.5" y="425.2344">&lt;Interface&gt;SubscriptionPublisherImpl</text><line style="stroke: #A80036; stroke-width: 1.5;" x1="1200.5" x2="1448.5" y1="436.6992" y2="436.6992"/><line style="stroke: #A80036; stroke-width: 1.0;" x1="1200.5" x2="1296.5" y1="451.1768" y2="451.1768"/><text fill="#000000" font-family="sans-serif" font-size="11" lengthAdjust="spacingAndGlyphs" textLength="56" x="1296.5" y="454.834">@Override</text><line style="stroke: #A80036; stroke-width: 1.0;" x1="1352.5" x2="1448.5" y1="451.1768" y2="451.1768"/><ellipse cx="1210.5" cy="485.0645" fill="#84BE84" rx="3" ry="3" style="stroke: #038048; stroke-width: 1.0;"/><text fill="#000000" font-family="sans-serif" font-size="11" lengthAdjust="spacingAndGlyphs" textLength="155" x="1219.5" y="487.7217">void &lt;attribute&gt;Changed(...)</text><line style="stroke: #A80036; stroke-width: 1.0; stroke-dasharray: 1.0,2.0;" x1="1200.5" x2="1297.5" y1="470.6094" y2="470.6094"/><text fill="#000000" font-family="sans-serif" font-size="11" lengthAdjust="spacingAndGlyphs" textLength="54" x="1297.5" y="474.2666">Attributes</text><line style="stroke: #A80036; stroke-width: 1.0; stroke-dasharray: 1.0,2.0;" x1="1351.5" x2="1448.5" y1="470.6094" y2="470.6094"/><ellipse cx="1210.5" cy="514.9746" fill="#84BE84" rx="3" ry="3" style="stroke: #038048; stroke-width: 1.0;"/><text fill="#000000" font-family="sans-serif" font-size="11" lengthAdjust="spacingAndGlyphs" textLength="132" x="1219.5" y="517.6318">void fire&lt;Broadcast&gt;(...)</text><line style="stroke: #A80036; stroke-width: 1.0; stroke-dasharray: 1.0,2.0;" x1="1200.5" x2="1295" y1="500.5195" y2="500.5195"/><text fill="#000000" font-family="sans-serif" font-size="11" lengthAdjust="spacingAndGlyphs" textLength="59" x="1295" y="504.1768">Broadcasts</text><line style="stroke: #A80036; stroke-width: 1.0; stroke-dasharray: 1.0,2.0;" x1="1354" x2="1448.5" y1="500.5195" y2="500.5195"/><rect fill="#FEFECE" filter="url(#f1)" height="60.9551" style="stroke: #A80036; stroke-width: 1.5;" width="188" x="167.5" y="433.6992"/><ellipse cx="196.45" cy="449.6992" fill="#A9DCDF" rx="11" ry="11" style="stroke: #A80036; stroke-width: 1.0;"/><path d="M196.5633,445.0474 L195.4095,450.1191 L197.7254,450.1191 Z M195.0691,442.8062 L198.0657,442.8062 L201.4109,455.1992 L198.9622,455.1992 L198.1985,452.1362 L194.9197,452.1362 L194.1727,455.1992 L191.7239,455.1992 Z "/><text fill="#000000" font-family="sans-serif" font-size="12" font-style="italic" lengthAdjust="spacingAndGlyphs" textLength="125" x="213.55" y="454.2344">AbstractJoynrProvider</text><line style="stroke: #A80036; stroke-width: 1.5;" x1="168.5" x2="354.5" y1="465.6992" y2="465.6992"/><line style="stroke: #A80036; stroke-width: 1.5;" x1="168.5" x2="354.5" y1="473.6992" y2="473.6992"/><ellipse cx="178.5" cy="485.6768" fill="#84BE84" rx="3" ry="3" style="stroke: #038048; stroke-width: 1.0;"/><text fill="#000000" font-family="sans-serif" font-size="11" lengthAdjust="spacingAndGlyphs" textLength="162" x="187.5" y="488.334">ProviderQos getProviderQos()</text><rect fill="#FEFECE" filter="url(#f1)" height="159.6406" style="stroke: #A80036; stroke-width: 1.5;" width="198" x="477.5" y="384.1992"/><ellipse cx="514.1" cy="400.1992" fill="#B4A7E5" rx="11" ry="11" style="stroke: #A80036; stroke-width: 1.0;"/><path d="M510.0277,395.9644 L510.0277,393.8062 L517.4071,393.8062 L517.4071,395.9644 L514.9418,395.9644 L514.9418,404.041 L517.4071,404.041 L517.4071,406.1992 L510.0277,406.1992 L510.0277,404.041 L512.4931,404.041 L512.4931,395.9644 Z "/><text fill="#000000" font-family="sans-serif" font-size="12" font-style="italic" lengthAdjust="spacingAndGlyphs" textLength="118" x="532.9" y="404.7344">&lt;Interface&gt;Provider</text><line style="stroke: #A80036; stroke-width: 1.5;" x1="478.5" x2="674.5" y1="416.1992" y2="416.1992"/><ellipse cx="488.5" cy="428.1768" fill="none" rx="3" ry="3" style="stroke: #038048; stroke-width: 1.0;"/><text fill="#000000" font-family="sans-serif" font-size="11" lengthAdjust="spacingAndGlyphs" text-decoration="underline" textLength="131" x="497.5" y="430.834">String INTERFACE_NAME</text><line style="stroke: #000000; stroke-width: 1.0;" x1="497.5" x2="628.5" y1="432.834" y2="432.834"/><ellipse cx="488.5" cy="441.1318" fill="none" rx="3" ry="3" style="stroke: #038048; stroke-width: 1.0;"/><text fill="#000000" font-family="sans-serif" font-size="11" lengthAdjust="spacingAndGlyphs" text-decoration="underline" textLength="105" x="497.5" y="443.7891">int MAJOR_VERSION</text><line style="stroke: #000000; stroke-width: 1.0;" x1="497.5" x2="602.5" y1="445.7891" y2="445.7891"/><ellipse cx="488.5" cy="454.0869" fill="none" rx="3" ry="3" style="stroke: #038048; stroke-width: 1.0;"/><text fill="#000000" font-family="sans-serif" font-size="11" lengthAdjust="spacingAndGlyphs" text-decoration="underline" textLength="105" x="497.5" y="456.7441">int MINOR_VERSION</text><line style="stroke: #000000; stroke-width: 1.0;" x1="497.5" x2="602.5" y1="458.7441" y2="458.7441"/><line style="stroke: #A80036; stroke-width: 1.5;" x1="478.5" x2="674.5" y1="463.0645" y2="463.0645"/><ellipse cx="488.5" cy="491.9971" fill="#84BE84" rx="3" ry="3" style="stroke: #038048; stroke-width: 1.0;"/><text fill="#000000" font-family="sans-serif" font-size="11" lengthAdjust="spacingAndGlyphs" textLength="164" x="497.5" y="494.6543">Promise&lt;...&gt; get&lt;Attribute&gt;()</text><ellipse cx="488.5" cy="504.9521" fill="#84BE84" rx="3" ry="3" style="stroke: #038048; stroke-width: 1.0;"/><text fill="#000000" font-family="sans-serif" font-size="11" lengthAdjust="spacingAndGlyphs" textLength="172" x="497.5" y="507.6094">Promise&lt;...&gt; set&lt;Attribute&gt;(...)</text><line style="stroke: #A80036; stroke-width: 1.0; stroke-dasharray: 1.0,2.0;" x1="478.5" x2="549.5" y1="477.542" y2="477.542"/><text fill="#000000" font-family="sans-serif" font-size="11" lengthAdjust="spacingAndGlyphs" textLength="54" x="549.5" y="481.1992">Attributes</text><line style="stroke: #A80036; stroke-width: 1.0; stroke-dasharray: 1.0,2.0;" x1="603.5" x2="674.5" y1="477.542" y2="477.542"/><ellipse cx="488.5" cy="534.8623" fill="#84BE84" rx="3" ry="3" style="stroke: #038048; stroke-width: 1.0;"/><text fill="#000000" font-family="sans-serif" font-size="11" lengthAdjust="spacingAndGlyphs" textLength="149" x="497.5" y="537.5195">Promise&lt;...&gt; &lt;method&gt;(...)</text><line style="stroke: #A80036; stroke-width: 1.0; stroke-dasharray: 1.0,2.0;" x1="478.5" x2="553.5" y1="520.4072" y2="520.4072"/><text fill="#000000" font-family="sans-serif" font-size="11" lengthAdjust="spacingAndGlyphs" textLength="46" x="553.5" y="524.0645">Methods</text><line style="stroke: #A80036; stroke-width: 1.0; stroke-dasharray: 1.0,2.0;" x1="599.5" x2="674.5" y1="520.4072" y2="520.4072"/><rect fill="#FEFECE" filter="url(#f1)" height="142.6855" style="stroke: #A80036; stroke-width: 1.5;" width="484" x="19.5" y="604.1992"/><ellipse cx="174.25" cy="620.1992" fill="#A9DCDF" rx="11" ry="11" style="stroke: #A80036; stroke-width: 1.0;"/><path d="M174.3633,615.5474 L173.2095,620.6191 L175.5254,620.6191 Z M172.8691,613.3062 L175.8657,613.3062 L179.2109,625.6992 L176.7622,625.6992 L175.9985,622.6362 L172.7197,622.6362 L171.9727,625.6992 L169.5239,625.6992 Z "/><text fill="#000000" font-family="sans-serif" font-size="12" font-style="italic" lengthAdjust="spacingAndGlyphs" textLength="166" x="194.75" y="624.7344">&lt;Interface&gt;AbstractProvider</text><line style="stroke: #A80036; stroke-width: 1.5;" x1="20.5" x2="502.5" y1="636.1992" y2="636.1992"/><polygon fill="none" points="30.5,643.1768,34.5,647.1768,30.5,651.1768,26.5,647.1768" style="stroke: #B38D22; stroke-width: 1.0;"/><text fill="#000000" font-family="sans-serif" font-size="11" lengthAdjust="spacingAndGlyphs" textLength="304" x="39.5" y="650.834">&lt;Interface&gt;SubscriptionPublisher subscriptionPublisher</text><ellipse cx="30.5" cy="678.0869" fill="#84BE84" rx="3" ry="3" style="stroke: #038048; stroke-width: 1.0;"/><text fill="#000000" font-family="sans-serif" font-size="11" lengthAdjust="spacingAndGlyphs" textLength="422" x="39.5" y="680.7441">void &lt;attribute&gt;Changed(...) { subscriptionPublisher.&lt;attribute&gt;Changed(...) }</text><line style="stroke: #A80036; stroke-width: 1.0; stroke-dasharray: 1.0,2.0;" x1="20.5" x2="234.5" y1="663.6318" y2="663.6318"/><text fill="#000000" font-family="sans-serif" font-size="11" lengthAdjust="spacingAndGlyphs" textLength="54" x="234.5" y="667.2891">Attributes</text><line style="stroke: #A80036; stroke-width: 1.0; stroke-dasharray: 1.0,2.0;" x1="288.5" x2="502.5" y1="663.6318" y2="663.6318"/><ellipse cx="30.5" cy="707.9971" fill="#84BE84" rx="3" ry="3" style="stroke: #038048; stroke-width: 1.0;"/><text fill="#000000" font-family="sans-serif" font-size="11" lengthAdjust="spacingAndGlyphs" textLength="376" x="39.5" y="710.6543">void fire&lt;Broadcast&gt;(...) { subscriptionPublisher.fire&lt;Broadcast&gt;(...) }</text><line style="stroke: #A80036; stroke-width: 1.0; stroke-dasharray: 1.0,2.0;" x1="20.5" x2="232" y1="693.542" y2="693.542"/><text fill="#000000" font-family="sans-serif" font-size="11" lengthAdjust="spacingAndGlyphs" textLength="59" x="232" y="697.1992">Broadcasts</text><line style="stroke: #A80036; stroke-width: 1.0; stroke-dasharray: 1.0,2.0;" x1="291" x2="502.5" y1="693.542" y2="693.542"/><text fill="#000000" font-family="sans-serif" font-size="11" lengthAdjust="spacingAndGlyphs" textLength="472" x="25.5" y="740.5645">void setSubscriptionPublisher(&lt;Interface&gt;SubscriptionPublisher subscriptionPublisher)</text><line style="stroke: #A80036; stroke-width: 1.0;" x1="20.5" x2="233.5" y1="723.4521" y2="723.4521"/><text fill="#000000" font-family="sans-serif" font-size="11" lengthAdjust="spacingAndGlyphs" textLength="56" x="233.5" y="727.1094">@Override</text><line style="stroke: #A80036; stroke-width: 1.0;" x1="289.5" x2="502.5" y1="723.4521" y2="723.4521"/><rect fill="#FEFECE" filter="url(#f1)" height="145.1631" style="stroke: #A80036; stroke-width: 1.5;" width="198" x="32.5" y="807.1992"/><ellipse cx="50.65" cy="823.1992" fill="#ADD1B2" rx="11" ry="11" style="stroke: #A80036; stroke-width: 1.0;"/><path d="M53.6231,828.8423 Q53.0421,829.1411 52.4029,829.2905 Q51.7638,829.4399 51.0582,829.4399 Q48.5514,829.4399 47.2315,827.7881 Q45.9117,826.1362 45.9117,823.0151 Q45.9117,819.8857 47.2315,818.2339 Q48.5514,816.582 51.0582,816.582 Q51.7638,816.582 52.4112,816.7314 Q53.0587,816.8809 53.6231,817.1797 L53.6231,819.9023 Q52.9923,819.3213 52.3988,819.0515 Q51.8053,818.7817 51.1744,818.7817 Q49.8297,818.7817 49.1449,819.8484 Q48.4601,820.915 48.4601,823.0151 Q48.4601,825.1069 49.1449,826.1736 Q49.8297,827.2402 51.1744,827.2402 Q51.8053,827.2402 52.3988,826.9705 Q52.9923,826.7007 53.6231,826.1196 Z "/><text fill="#000000" font-family="sans-serif" font-size="12" lengthAdjust="spacingAndGlyphs" textLength="159" x="65.35" y="827.7344">Default&lt;Interface&gt;Provider</text><line style="stroke: #A80036; stroke-width: 1.5;" x1="33.5" x2="229.5" y1="839.1992" y2="839.1992"/><polygon fill="none" points="43.5,846.1768,47.5,850.1768,43.5,854.1768,39.5,850.1768" style="stroke: #B38D22; stroke-width: 1.0;"/><text fill="#000000" font-family="sans-serif" font-size="11" lengthAdjust="spacingAndGlyphs" textLength="111" x="52.5" y="853.834">&lt;Type&gt; &lt;attribute&gt;</text><line style="stroke: #A80036; stroke-width: 1.0;" x1="33.5" x2="103.5" y1="866.6318" y2="866.6318"/><text fill="#000000" font-family="sans-serif" font-size="11" lengthAdjust="spacingAndGlyphs" textLength="56" x="103.5" y="870.2891">@Override</text><line style="stroke: #A80036; stroke-width: 1.0;" x1="159.5" x2="229.5" y1="866.6318" y2="866.6318"/><ellipse cx="43.5" cy="900.5195" fill="#84BE84" rx="3" ry="3" style="stroke: #038048; stroke-width: 1.0;"/><text fill="#000000" font-family="sans-serif" font-size="11" lengthAdjust="spacingAndGlyphs" textLength="164" x="52.5" y="903.1768">Promise&lt;...&gt; get&lt;Attribute&gt;()</text><ellipse cx="43.5" cy="913.4746" fill="#84BE84" rx="3" ry="3" style="stroke: #038048; stroke-width: 1.0;"/><text fill="#000000" font-family="sans-serif" font-size="11" lengthAdjust="spacingAndGlyphs" textLength="172" x="52.5" y="916.1318">Promise&lt;...&gt; set&lt;Attribute&gt;(...)</text><line style="stroke: #A80036; stroke-width: 1.0; stroke-dasharray: 1.0,2.0;" x1="33.5" x2="104.5" y1="886.0645" y2="886.0645"/><text fill="#000000" font-family="sans-serif" font-size="11" lengthAdjust="spacingAndGlyphs" textLength="54" x="104.5" y="889.7217">Attributes</text><line style="stroke: #A80036; stroke-width: 1.0; stroke-dasharray: 1.0,2.0;" x1="158.5" x2="229.5" y1="886.0645" y2="886.0645"/><ellipse cx="43.5" cy="943.3848" fill="#84BE84" rx="3" ry="3" style="stroke: #038048; stroke-width: 1.0;"/><text fill="#000000" font-family="sans-serif" font-size="11" lengthAdjust="spacingAndGlyphs" textLength="149" x="52.5" y="946.042">Promise&lt;...&gt; &lt;method&gt;(...)</text><line style="stroke: #A80036; stroke-width: 1.0; stroke-dasharray: 1.0,2.0;" x1="33.5" x2="108.5" y1="928.9297" y2="928.9297"/><text fill="#000000" font-family="sans-serif" font-size="11" lengthAdjust="spacingAndGlyphs" textLength="46" x="108.5" y="932.5869">Methods</text><line style="stroke: #A80036; stroke-width: 1.0; stroke-dasharray: 1.0,2.0;" x1="154.5" x2="229.5" y1="928.9297" y2="928.9297"/><rect fill="#FEFECE" filter="url(#f1)" height="60.9551" style="stroke: #A80036; stroke-width: 1.5;" width="251" x="539" y="645.1992"/><ellipse cx="557.6" cy="661.1992" fill="#ADD1B2" rx="11" ry="11" style="stroke: #A80036; stroke-width: 1.0;"/><path d="M560.5731,666.8423 Q559.9921,667.1411 559.3529,667.2905 Q558.7138,667.4399 558.0082,667.4399 Q555.5014,667.4399 554.1815,665.7881 Q552.8617,664.1362 552.8617,661.0151 Q552.8617,657.8857 554.1815,656.2339 Q555.5014,654.582 558.0082,654.582 Q558.7138,654.582 559.3612,654.7314 Q560.0087,654.8809 560.5731,655.1797 L560.5731,657.9023 Q559.9423,657.3213 559.3488,657.0515 Q558.7553,656.7817 558.1244,656.7817 Q556.7797,656.7817 556.0949,657.8484 Q555.4101,658.915 555.4101,661.0151 Q555.4101,663.1069 556.0949,664.1736 Q556.7797,665.2402 558.1244,665.2402 Q558.7553,665.2402 559.3488,664.9705 Q559.9423,664.7007 560.5731,664.1196 Z "/><text fill="#000000" font-family="sans-serif" font-size="12" lengthAdjust="spacingAndGlyphs" textLength="211" x="572.4" y="665.7344">Option A: MyProviderImplementation</text><line style="stroke: #A80036; stroke-width: 1.5;" x1="540" x2="789" y1="677.1992" y2="677.1992"/><text fill="#000000" font-family="sans-serif" font-size="11" lengthAdjust="spacingAndGlyphs" textLength="239" x="545" y="691.834">Put your provider implementation code here.</text><line style="stroke: #A80036; stroke-width: 1.5;" x1="540" x2="789" y1="698.1543" y2="698.1543"/><rect fill="#FEFECE" filter="url(#f1)" height="60.9551" style="stroke: #A80036; stroke-width: 1.5;" width="251" x="266" y="849.1992"/><ellipse cx="285.05" cy="865.1992" fill="#ADD1B2" rx="11" ry="11" style="stroke: #A80036; stroke-width: 1.0;"/><path d="M288.0231,870.8423 Q287.4421,871.1411 286.8029,871.2905 Q286.1638,871.4399 285.4582,871.4399 Q282.9514,871.4399 281.6315,869.7881 Q280.3117,868.1362 280.3117,865.0151 Q280.3117,861.8857 281.6315,860.2339 Q282.9514,858.582 285.4582,858.582 Q286.1638,858.582 286.8112,858.7314 Q287.4587,858.8809 288.0231,859.1797 L288.0231,861.9023 Q287.3923,861.3213 286.7988,861.0515 Q286.2053,860.7817 285.5744,860.7817 Q284.2297,860.7817 283.5449,861.8484 Q282.8601,862.915 282.8601,865.0151 Q282.8601,867.1069 283.5449,868.1736 Q284.2297,869.2402 285.5744,869.2402 Q286.2053,869.2402 286.7988,868.9705 Q287.3923,868.7007 288.0231,868.1196 Z "/><text fill="#000000" font-family="sans-serif" font-size="12" lengthAdjust="spacingAndGlyphs" textLength="210" x="299.95" y="869.7344">Option B: MyProviderImplementation</text><line style="stroke: #A80036; stroke-width: 1.5;" x1="267" x2="516" y1="881.1992" y2="881.1992"/><text fill="#000000" font-family="sans-serif" font-size="11" lengthAdjust="spacingAndGlyphs" textLength="239" x="272" y="895.834">Put your provider implementation code here.</text><line style="stroke: #A80036; stroke-width: 1.5;" x1="267" x2="516" y1="902.1543" y2="902.1543"/><rect fill="#FEFECE" filter="url(#f1)" height="60.9551" style="stroke: #A80036; stroke-width: 1.5;" width="251" x="6" y="1012.1992"/><ellipse cx="24.6" cy="1028.1992" fill="#ADD1B2" rx="11" ry="11" style="stroke: #A80036; stroke-width: 1.0;"/><path d="M27.5731,1033.8423 Q26.9921,1034.1411 26.3529,1034.2905 Q25.7138,1034.4399 25.0082,1034.4399 Q22.5014,1034.4399 21.1815,1032.7881 Q19.8617,1031.1362 19.8617,1028.0151 Q19.8617,1024.8857 21.1815,1023.2339 Q22.5014,1021.582 25.0082,1021.582 Q25.7138,1021.582 26.3612,1021.7314 Q27.0087,1021.8809 27.5731,1022.1797 L27.5731,1024.9023 Q26.9423,1024.3213 26.3488,1024.0515 Q25.7553,1023.7817 25.1244,1023.7817 Q23.7797,1023.7817 23.0949,1024.8484 Q22.4101,1025.915 22.4101,1028.0151 Q22.4101,1030.1069 23.0949,1031.1736 Q23.7797,1032.2402 25.1244,1032.2402 Q25.7553,1032.2402 26.3488,1031.9705 Q26.9423,1031.7007 27.5731,1031.1196 Z "/><text fill="#000000" font-family="sans-serif" font-size="12" lengthAdjust="spacingAndGlyphs" textLength="211" x="39.4" y="1032.7344">Option C: MyProviderImplementation</text><line style="stroke: #A80036; stroke-width: 1.5;" x1="7" x2="256" y1="1044.1992" y2="1044.1992"/><text fill="#000000" font-family="sans-serif" font-size="11" lengthAdjust="spacingAndGlyphs" textLength="239" x="12" y="1058.834">Put your provider implementation code here.</text><line style="stroke: #A80036; stroke-width: 1.5;" x1="7" x2="256" y1="1065.1543" y2="1065.1543"/><path d="M1426.65,124.2222 C1380.82,143.8432 1325.82,167.3822 1275.12,189.0872 " fill="none" style="stroke: #A80036; stroke-width: 1.0; stroke-dasharray: 7.0,7.0;"/><polygon fill="none" points="1423.9,117.7852,1445.04,116.3502,1429.41,130.6552,1423.9,117.7852" style="stroke: #A80036; stroke-width: 1.0;"/><path d="M1094.67,149.4052 C1097.72,162.4512 1100.9,176.0692 1103.93,189.0352 " fill="none" style="stroke: #A80036; stroke-width: 1.0; stroke-dasharray: 7.0,7.0;"/><polygon fill="none" points="1087.76,150.6212,1090.03,129.5532,1101.4,147.4362,1087.76,150.6212" style="stroke: #A80036; stroke-width: 1.0;"/><path d="M1529.5,136.8642 C1529.5,159.2682 1529.5,184.7772 1529.5,206.4022 " fill="none" style="stroke: #A80036; stroke-width: 1.0;"/><polygon fill="none" points="1522.5,136.5632,1529.5,116.5632,1536.5,136.5632,1522.5,136.5632" style="stroke: #A80036; stroke-width: 1.0;"/><path d="M1200.21,338.6092 C1222.13,360.5762 1245.43,383.9392 1265.87,404.4272 " fill="none" style="stroke: #A80036; stroke-width: 1.0;"/><polygon fill="none" points="1195.23,343.5222,1186.06,324.4192,1205.14,333.6352,1195.23,343.5222" style="stroke: #A80036; stroke-width: 1.0;"/><path d="M1466.15,321.2052 C1439.64,347.7792 1409.02,378.4742 1383.04,404.5122 " fill="none" style="stroke: #A80036; stroke-width: 1.0; stroke-dasharray: 7.0,7.0;"/><polygon fill="none" points="1461.32,316.1372,1480.4,306.9212,1471.23,326.0242,1461.32,316.1372" style="stroke: #A80036; stroke-width: 1.0;"/><path d="M261.5,301.1172 C261.5,340.9012 261.5,398.7372 261.5,433.4902 " fill="none" style="stroke: #A80036; stroke-width: 1.0; stroke-dasharray: 7.0,7.0;"/><polygon fill="none" points="254.5,300.8732,261.5,280.8732,268.5,300.8732,254.5,300.8732" style="stroke: #A80036; stroke-width: 1.0;"/><path d="M261.5,514.9442 C261.5,541.5992 261.5,574.8892 261.5,604.1702 " fill="none" style="stroke: #A80036; stroke-width: 1.0;"/><polygon fill="none" points="254.5,514.7712,261.5,494.7712,268.5,514.7712,254.5,514.7712" style="stroke: #A80036; stroke-width: 1.0;"/><path d="M460.191,542.5542 C429.869,562.7202 397.356,584.3442 367.594,604.1382 " fill="none" style="stroke: #A80036; stroke-width: 1.0; stroke-dasharray: 7.0,7.0;"/><polygon fill="none" points="456.735,536.4462,477.264,531.1992,464.488,548.1032,456.735,536.4462" style="stroke: #A80036; stroke-width: 1.0;"/><path d="M617.692,563.2642 C630.202,593.0472 643.016,623.5532 652.067,645.0992 " fill="none" style="stroke: #A80036; stroke-width: 1.0; stroke-dasharray: 7.0,7.0;"/><polygon fill="none" points="611.061,565.5522,609.769,544.4022,623.968,560.1302,611.061,565.5522" style="stroke: #A80036; stroke-width: 1.0;"/><path d="M205.024,764.4542 C195.865,778.6862 186.476,793.2752 177.602,807.0642 " fill="none" style="stroke: #A80036; stroke-width: 1.0;"/><polygon fill="none" points="199.322,760.3792,216.032,747.3492,211.095,767.9552,199.322,760.3792" style="stroke: #A80036; stroke-width: 1.0;"/><path d="M317.982,764.4632 C337.522,794.8252 358.106,826.8102 372.508,849.1882 " fill="none" style="stroke: #A80036; stroke-width: 1.0;"/><polygon fill="none" points="311.905,767.9552,306.968,747.3492,323.678,760.3792,311.905,767.9552" style="stroke: #A80036; stroke-width: 1.0;"/><path d="M131.5,972.4912 C131.5,986.7147 131.5,1000.4582 131.5,1011.898 " fill="none" style="stroke: #A80036; stroke-width: 1.0;"/><polygon fill="none" points="124.5,972.2542,131.5,952.2542,138.5,972.2542,124.5,972.2542" style="stroke: #A80036; stroke-width: 1.0;"/><path d="M576.5,129.9932 C576.5,163.6532 576.5,206.5422 576.5,232.5212 " fill="none" style="stroke: #A80036; stroke-width: 1.0;"/><polygon fill="none" points="569.5,129.9702,576.5,109.9702,583.5,129.9702,569.5,129.9702" style="stroke: #A80036; stroke-width: 1.0;"/><path d="M576.5,301.2102 C576.5,325.2262 576.5,355.8002 576.5,383.9012 " fill="none" style="stroke: #A80036; stroke-width: 1.0;"/><polygon fill="none" points="569.5,300.8732,576.5,280.8732,583.5,300.8732,569.5,300.8732" style="stroke: #A80036; stroke-width: 1.0;"/></g></svg>