<?xml version="1.0" encoding="UTF-8" standalone="yes"?><svg xmlns="http://www.w3.org/2000/svg" xmlns:xlink="http://www.w3.org/1999/xlink" height="315px" style="width:312px;height:315px;" version="1.1" viewBox="0 0 312 315" width="312px"><defs><filter height="300%" id="f1" width="300%" x="-1" y="-1"><feGaussianBlur result="blurOut" stdDeviation="2.0"/><feColorMatrix in="blurOut" result="blurOut2" type="matrix" values="0 0 0 0 0 0 0 0 0 0 0 0 0 0 0 0 0 0 .4 0"/><feOffset dx="4.0" dy="4.0" in="blurOut2" result="blurOut3"/><feBlend in="SourceGraphic" in2="blurOut3" mode="normal"/></filter></defs><g><text fill="#000000" font-family="sans-serif" font-size="18" lengthAdjust="spacingAndGlyphs" textLength="176" x="72.5" y="17.4023">Java Proxy Hierarchy</text><rect fill="#FEFECE" filter="url(#f1)" height="60.9551" style="stroke: #A80036; stroke-width: 1.5;" width="157" x="78" y="29.1992"/><ellipse cx="117.75" cy="45.1992" fill="#B4A7E5" rx="11" ry="11" style="stroke: #A80036; stroke-width: 1.0;"/><path d="M113.6777,40.9644 L113.6777,38.8062 L121.0571,38.8062 L121.0571,40.9644 L118.5918,40.9644 L118.5918,49.041 L121.0571,49.041 L121.0571,51.1992 L113.6777,51.1992 L113.6777,49.041 L116.1431,49.041 L116.1431,40.9644 Z "/><text fill="#000000" font-family="sans-serif" font-size="12" font-style="italic" lengthAdjust="spacingAndGlyphs" textLength="70" x="137.25" y="49.7344">&lt;Interface&gt;</text><line style="stroke: #A80036; stroke-width: 1.5;" x1="79" x2="234" y1="61.1992" y2="61.1992"/><ellipse cx="89" cy="73.1768" fill="none" rx="3" ry="3" style="stroke: #038048; stroke-width: 1.0;"/><text fill="#000000" font-family="sans-serif" font-size="11" lengthAdjust="spacingAndGlyphs" textLength="131" x="98" y="75.834">String INTERFACE_NAME</text><line style="stroke: #A80036; stroke-width: 1.5;" x1="79" x2="234" y1="82.1543" y2="82.1543"/><rect fill="#FEFECE" filter="url(#f1)" height="48" style="stroke: #A80036; stroke-width: 1.5;" width="135" x="6" y="150.1992"/><ellipse cx="21" cy="166.1992" fill="#B4A7E5" rx="11" ry="11" style="stroke: #A80036; stroke-width: 1.0;"/><path d="M16.9277,161.9644 L16.9277,159.8062 L24.3071,159.8062 L24.3071,161.9644 L21.8418,161.9644 L21.8418,170.041 L24.3071,170.041 L24.3071,172.1992 L16.9277,172.1992 L16.9277,170.041 L19.3931,170.041 L19.3931,161.9644 Z "/><text fill="#000000" font-family="sans-serif" font-size="12" font-style="italic" lengthAdjust="spacingAndGlyphs" textLength="103" x="35" y="170.7344">&lt;Interface&gt;Async</text><line style="stroke: #A80036; stroke-width: 1.5;" x1="7" x2="140" y1="182.1992" y2="182.1992"/><line style="stroke: #A80036; stroke-width: 1.5;" x1="7" x2="140" y1="190.1992" y2="190.1992"/><rect fill="#FEFECE" filter="url(#f1)" height="48" style="stroke: #A80036; stroke-width: 1.5;" width="127" x="176" y="150.1992"/><ellipse cx="191" cy="166.1992" fill="#B4A7E5" rx="11" ry="11" style="stroke: #A80036; stroke-width: 1.0;"/><path d="M186.9277,161.9644 L186.9277,159.8062 L194.3071,159.8062 L194.3071,161.9644 L191.8418,161.9644 L191.8418,170.041 L194.3071,170.041 L194.3071,172.1992 L186.9277,172.1992 L186.9277,170.041 L189.3931,170.041 L189.3931,161.9644 Z "/><text fill="#000000" font-family="sans-serif" font-size="12" font-style="italic" lengthAdjust="spacingAndGlyphs" textLength="95" x="205" y="170.7344">&lt;Interface&gt;Sync</text><line style="stroke: #A80036; stroke-width: 1.5;" x1="177" x2="302" y1="182.1992" y2="182.1992"/><line style="stroke: #A80036; stroke-width: 1.5;" x1="177" x2="302" y1="190.1992" y2="190.1992"/><rect fill="#FEFECE" filter="url(#f1)" height="48" style="stroke: #A80036; stroke-width: 1.5;" width="134" x="89.5" y="258.1992"/><ellipse cx="104.5" cy="274.1992" fill="#B4A7E5" rx="11" ry="11" style="stroke: #A80036; stroke-width: 1.0;"/><path d="M100.4277,269.9644 L100.4277,267.8062 L107.8071,267.8062 L107.8071,269.9644 L105.3418,269.9644 L105.3418,278.041 L107.8071,278.041 L107.8071,280.1992 L100.4277,280.1992 L100.4277,278.041 L102.8931,278.041 L102.8931,269.9644 Z "/><text fill="#000000" font-family="sans-serif" font-size="12" font-style="italic" lengthAdjust="spacingAndGlyphs" textLength="102" x="118.5" y="278.7344">&lt;Interface&gt;Proxy</text><line style="stroke: #A80036; stroke-width: 1.5;" x1="90.5" x2="222.5" y1="290.1992" y2="290.1992"/><line style="stroke: #A80036; stroke-width: 1.5;" x1="90.5" x2="222.5" y1="298.1992" y2="298.1992"/><path d="M122.757,106.4352 C111.748,121.3572 99.9834,137.3032 90.7134,149.8682 " fill="none" style="stroke: #A80036; stroke-width: 1.0; stroke-dasharray: 7.0,7.0;"/><polygon fill="none" points="117.186,102.1952,134.693,90.2572,128.452,110.5072,117.186,102.1952" style="stroke: #A80036; stroke-width: 1.0;"/><path d="M190.243,106.4352 C201.252,121.3572 213.017,137.3032 222.287,149.8682 " fill="none" style="stroke: #A80036; stroke-width: 1.0; stroke-dasharray: 7.0,7.0;"/><polygon fill="none" points="184.548,110.5072,178.307,90.2572,195.814,102.1952,184.548,110.5072" style="stroke: #A80036; stroke-width: 1.0;"/><path d="M208.823,214.3776 C197.374,228.9987 184.744,245.1287 174.761,257.8776 " fill="none" style="stroke: #A80036; stroke-width: 1.0; stroke-dasharray: 7.0,7.0;"/><polygon fill="none" points="203.649,209.631,221.49,198.1992,214.671,218.2622,203.649,209.631" style="stroke: #A80036; stroke-width: 1.0;"/><path d="M104.1774,214.3776 C115.626,228.9987 128.256,245.1287 138.239,257.8776 " fill="none" style="stroke: #A80036; stroke-width: 1.0; stroke-dasharray: 7.0,7.0;"/><polygon fill="none" points="98.3285,218.2622,91.5098,198.1992,109.351,209.631,98.3285,218.2622" style="stroke: #A80036; stroke-width: 1.0;"/></g></svg>